<svg width="403" height="152" viewBox="0 0 403 152" fill="none" xmlns="http://www.w3.org/2000/svg">
<path fill-rule="evenodd" clip-rule="evenodd" d="M74.9416 140.274C62.3448 140.277 50.0303 136.527 39.5549 129.497C29.0794 122.466 20.9138 112.472 16.0906 100.777C11.2675 89.0827 10.0036 76.2136 12.4588 63.7971C14.9139 51.3805 20.9778 39.9749 29.8835 31.022C38.7892 22.0692 50.1367 15.9717 62.4908 13.5006C74.8449 11.0295 87.6511 12.2958 99.2891 17.1394C110.927 21.983 120.874 30.1863 127.873 40.7117C134.872 51.2373 138.607 63.6122 138.607 76.2713C138.572 93.2315 131.853 109.487 119.922 121.482C107.99 133.476 91.8177 140.233 74.9416 140.274ZM74.9416 0.976077C60.1225 0.972265 45.6352 5.38501 33.3116 13.6563C20.9882 21.9275 11.3823 33.6857 5.70867 47.4438C0.0350255 61.202 -1.45142 76.3417 1.43731 90.9491C4.32605 105.556 11.4602 118.974 21.9375 129.506C32.4148 140.039 45.7647 147.212 60.2986 150.118C74.8325 153.026 89.898 151.536 103.589 145.837C117.281 140.139 128.983 130.488 137.217 118.105C145.45 105.722 149.845 91.1641 149.845 76.2713C149.809 56.3161 141.907 37.1882 127.868 23.0757C113.829 8.96342 94.7977 1.01683 74.9416 0.976077Z" fill="#003896"/>
<path fill-rule="evenodd" clip-rule="evenodd" d="M80.2726 23.9484V34.548C88.0998 35.5398 95.4901 38.7294 101.596 43.7505C107.701 48.7716 112.274 55.4212 114.79 62.9353L102.863 76.2523L114.713 89.627C112.193 97.1429 107.62 103.794 101.516 108.821C95.4119 113.848 88.0236 117.047 80.1958 118.053V128.614C91.2919 127.475 101.737 122.81 110.014 115.296C118.291 107.782 123.968 97.8112 126.219 86.8327L116.861 76.31L126.219 65.8263C123.975 54.8404 118.301 44.861 110.024 37.3394C101.747 29.8181 91.2973 25.1471 80.1958 24.0062" fill="#003896"/>
<path fill-rule="evenodd" clip-rule="evenodd" d="M59.4662 94.3485L43.7032 81.7257V34.2588C39.751 37.2559 36.2391 40.7984 33.2712 44.7815V86.7941L59.4662 107.82V126.417C62.8671 127.495 66.3693 128.218 69.9174 128.576V23.9484C66.372 24.2808 62.8698 24.9782 59.4662 26.0297V94.3485Z" fill="#003896"/>
<path fill-rule="evenodd" clip-rule="evenodd" d="M272.516 75.732L277.426 60.3144C277.579 59.8135 277.982 58.8691 278.25 58.8691C278.519 58.8691 278.921 59.8327 279.075 60.3144C280.724 65.1903 282.354 70.3939 283.984 75.732H272.516ZM372.675 80.897C371.769 79.2776 370.42 77.9523 368.789 77.078C367.158 76.2037 365.313 75.8169 363.47 75.9632V75.578C365.641 75.1821 367.645 74.1417 369.222 72.5907C372.52 69.276 372.809 65.248 372.809 61.0277C372.809 56.2868 372.54 50.852 369.128 47.0941C364.715 42.2568 357.89 42.3531 351.867 42.3531H308.76L315.472 59.1774H344.619C346.552 58.9869 348.501 59.1503 350.374 59.6592C351.964 60.3916 352.119 61.7792 352.119 63.3403C352.182 64.0298 352.112 64.7253 351.907 65.3869C351.702 66.0485 351.37 66.6628 350.927 67.1945C349.548 68.5436 346.689 68.4473 344.293 68.4473H319.326L325.079 83.1516H344.928C348.763 83.1516 350.451 83.1516 351.561 84.0188C352.169 84.4949 352.649 85.1169 352.951 85.8275C353.256 86.5381 353.38 87.3148 353.306 88.0854C353.407 88.9175 353.28 89.7613 352.944 90.5275C352.605 91.2942 352.068 91.9551 351.39 92.4409C350.39 93.0575 348.897 93.2115 344.85 93.2115H310.332L293.074 49.7922C290.024 42.2568 284.501 41.5822 278.346 41.5822C268.393 41.5822 265.632 44.7815 263.618 49.7922L239.725 110.152H261.663L267.933 90.4557H288.433C290.523 97.2972 292.671 103.946 294.895 110.152H351.464C356.259 110.152 364.256 110.73 369.051 107.145C373.846 103.561 374.574 96.6997 374.574 91.8625C374.886 88.1022 374.225 84.3248 372.655 80.897H372.675Z" fill="#003896"/>
<path fill-rule="evenodd" clip-rule="evenodd" d="M218.017 42.4684V75.7127H201.659C198.706 75.7127 196.52 75.597 195.35 74.5562C193.835 73.1881 193.912 70.2971 193.912 68.4663V42.4684H172.319V71.9353C172.174 75.9496 173.066 79.9333 174.908 83.4983C176.234 85.7056 178.117 87.521 180.367 88.7596C182.617 89.9986 185.153 90.617 187.718 90.5519H218.036V110.151H239.724V42.4684H218.017Z" fill="#003896"/>
<path fill-rule="evenodd" clip-rule="evenodd" d="M383.299 44.9352H380.211V42.796H389.013V44.9352H385.889V54.0702H383.299V44.9352Z" fill="#003896"/>
<path fill-rule="evenodd" clip-rule="evenodd" d="M399.982 49.7533C399.982 48.4042 399.885 46.766 399.885 45.1086C399.502 46.554 399.043 48.1536 398.6 49.4835L397.201 53.8967H395.187L393.959 49.5218C393.597 48.1922 393.214 46.612 392.926 45.1086C392.926 46.6311 392.812 48.3848 392.734 49.7919L392.503 54.0893H390.107L390.835 42.796H394.288L395.399 46.6502C395.764 47.961 396.11 49.3678 396.358 50.6783C396.664 49.3678 397.05 47.8839 397.452 46.6311L398.66 42.8732H402.053L402.667 54.1664H400.153L399.982 49.7533Z" fill="#003896"/>
</svg>
