<svg width="227" height="60" viewBox="0 0 227 60" fill="none" xmlns="http://www.w3.org/2000/svg">
<g clip-path="url(#clip0_5_161)">
<mask id="mask0_5_161" style="mask-type:luminance" maskUnits="userSpaceOnUse" x="0" y="0" width="227" height="60">
<path d="M227 0H0V60H227V0Z" fill="white"/>
</mask>
<g mask="url(#mask0_5_161)">
<path d="M33.9952 59.9957H25.9973C24.7598 59.9957 23.7523 58.9888 23.7523 57.7507V52.4589C21.9281 51.9528 20.1794 51.2246 18.5363 50.2878L14.7883 54.0352C13.9383 54.8852 12.4602 54.8846 11.6115 54.0346L5.95987 48.381C5.53488 47.9567 5.30048 47.393 5.30116 46.7929C5.30116 46.1936 5.53557 45.6299 5.96056 45.2061L9.77548 41.3898C8.87991 39.763 8.18865 38.0375 7.7118 36.2413H2.24054C1.00498 36.2414 0 35.2351 0 33.997V26.0004C0 24.7623 1.00498 23.7549 2.24054 23.7549H7.89101C8.40159 22.0412 9.11285 20.3925 10.0128 18.8381L5.96046 14.7858C5.53792 14.3676 5.30293 13.8058 5.30175 13.2071C5.30048 12.6058 5.53429 12.0408 5.96115 11.6147L11.6122 5.95674C12.4678 5.11117 13.9372 5.11244 14.7853 5.95301L18.9608 10.1285C20.482 9.30225 22.0882 8.65227 23.7531 8.18924V2.24133C23.7523 1.00488 24.7592 0 25.9973 0H33.9952C35.2333 0 36.2407 1.00488 36.2407 2.24113C36.2407 2.24113 36.2407 5 36.2407 6C36.2407 7.18924 34.3642 7.18924 34.3642 6C34.3642 5.26621 34.3642 2.24103 34.3642 2.24103C34.3649 2.03604 34.2024 1.87476 33.9947 1.87476H25.9968C25.7931 1.87476 25.6268 2.03917 25.6268 2.24103V9.6495L24.9105 9.82391C22.9313 10.3052 21.035 11.0713 19.2732 12.1026L18.6488 12.4682L13.4615 7.28083C13.3696 7.18955 13.2572 7.17524 13.199 7.17524C13.1403 7.17524 13.029 7.18955 12.9334 7.28396L7.28514 12.9394C7.18955 13.0351 7.17514 13.1444 7.17514 13.2013C7.17514 13.2576 7.18896 13.3644 7.28141 13.4556L12.3813 18.5548L11.9876 19.1873C10.8751 20.9742 10.0408 22.9066 9.50637 24.9303L9.32255 25.6284H2.24054C2.03927 25.6297 1.87496 25.7952 1.87496 26.0002V33.9974C1.87496 34.2011 2.03927 34.3668 2.24054 34.3668H9.19157L9.3597 35.0937C9.84469 37.2005 10.6497 39.211 11.7508 41.0697L12.1221 41.6961L7.28592 46.5335C7.19093 46.6285 7.17651 46.7378 7.17651 46.7946C7.17651 46.8515 7.19034 46.9616 7.28524 47.0558L12.9382 52.7108C13.0332 52.8058 13.1432 52.8202 13.2007 52.8202C13.2576 52.8202 13.3681 52.8062 13.4631 52.7108L18.2481 47.9255L18.8787 48.3122C20.7475 49.4603 22.7768 50.3047 24.911 50.8234L25.6273 50.9971V57.7514C25.6273 57.9551 25.7936 58.1212 25.9973 58.1212H33.9952C34.2027 58.1212 34.3657 57.9588 34.3657 57.7514C34.3657 57.7514 34.3657 55.2136 34.3657 54C34.3657 52.6619 36.2407 52.6619 36.2407 54C36.2407 55.3381 36.2407 57.7497 36.2407 57.7497C36.2401 58.9887 35.2333 59.9957 33.9952 59.9957Z" fill="white"/>
<path d="M32 45C27.7565 45 23.6869 43.4723 20.6863 40.753C17.6857 38.0338 16 34.3456 16 30.5C16 26.6544 17.6857 22.9662 20.6863 20.247C23.6869 17.5277 27.7565 16 32 16" stroke="white" stroke-width="2" stroke-linecap="round" stroke-linejoin="round"/>
<path d="M32 39C29.6131 39 27.3239 38.1045 25.636 36.5104C23.9482 34.9163 23 32.7543 23 30.5C23 28.2457 23.9482 26.0837 25.636 24.4896C27.3239 22.8955 29.6131 22 32 22" stroke="white" stroke-width="2" stroke-linecap="round" stroke-linejoin="round"/>
<path d="M56.5 11C58.9853 11 61 8.98528 61 6.5C61 4.01472 58.9853 2 56.5 2C54.0147 2 52 4.01472 52 6.5C52 8.98528 54.0147 11 56.5 11Z" stroke="white" stroke-width="2"/>
<path d="M62.5 26.5C64.9853 26.5 67 24.4853 67 22C67 19.5147 64.9853 17.5 62.5 17.5C60.0147 17.5 58 19.5147 58 22C58 24.4853 60.0147 26.5 62.5 26.5Z" stroke="white" stroke-width="2"/>
<path d="M62.5 43.5C64.9853 43.5 67 41.4853 67 39C67 36.5147 64.9853 34.5 62.5 34.5C60.0147 34.5 58 36.5147 58 39C58 41.4853 60.0147 43.5 62.5 43.5Z" stroke="white" stroke-width="2"/>
<path d="M47.5 35C49.9853 35 52 32.9853 52 30.5C52 28.0147 49.9853 26 47.5 26C45.0147 26 43 28.0147 43 30.5C43 32.9853 45.0147 35 47.5 35Z" stroke="white" stroke-width="2"/>
<path d="M32 22H58" stroke="white" stroke-width="2"/>
<path d="M32 39H58" stroke="white" stroke-width="2"/>
<path d="M38 15C37.4477 15 37 15.4477 37 16C37 16.5523 37.4477 17 38 17V15ZM48.8387 16V17H49.2976L49.5968 16.6521L48.8387 16ZM38 17H48.8387V15H38V17ZM49.5968 16.6521L54.7581 10.6521L53.2419 9.34787L48.0806 15.3479L49.5968 16.6521Z" fill="white"/>
<path d="M56.5 50C58.9853 50 61 52.0147 61 54.5C61 56.9853 58.9853 59 56.5 59C54.0147 59 52 56.9853 52 54.5C52 52.0147 54.0147 50 56.5 50Z" stroke="white" stroke-width="2"/>
<path d="M38 46C37.4477 46 37 45.5523 37 45C37 44.4477 37.4477 44 38 44V46ZM48.8387 45V44H49.2976L49.5968 44.3479L48.8387 45ZM38 44H48.8387V46H38V44ZM49.5968 44.3479L54.7581 50.3479L53.2419 51.6521L48.0806 45.6521L49.5968 44.3479Z" fill="white"/>
<path d="M30 29.5C29.4477 29.5 29 29.9477 29 30.5C29 31.0523 29.4477 31.5 30 31.5V29.5ZM43 29.5H30V31.5H43V29.5Z" fill="white"/>
<path d="M85.0575 12.1143C84.2956 12.1143 83.586 11.9857 82.9288 11.7286C82.2812 11.4714 81.7192 11.1142 81.243 10.6571C80.7668 10.1904 80.3953 9.64747 80.1286 9.02839C79.862 8.4093 79.7286 7.73307 79.7286 6.99969C79.7286 6.26631 79.862 5.59008 80.1286 4.97099C80.3953 4.35191 80.7668 3.81378 81.243 3.35661C81.7192 2.88991 82.2812 2.52798 82.9288 2.27082C83.5765 2.01367 84.286 1.88509 85.0575 1.88509C85.8195 1.88509 86.5195 2.01367 87.1576 2.27082C87.8053 2.51846 88.3672 2.87562 88.8435 3.34232C89.3292 3.79949 89.7007 4.33762 89.9578 4.95671C90.2245 5.57579 90.3578 6.25679 90.3578 6.99969C90.3578 7.74259 90.2245 8.42359 89.9578 9.04267C89.7007 9.66176 89.3292 10.2047 88.8435 10.6713C88.3672 11.1285 87.8053 11.4857 87.1576 11.7428C86.5195 11.9905 85.8195 12.1143 85.0575 12.1143ZM85.0575 10.8428C85.6099 10.8428 86.1195 10.7475 86.5862 10.5571C87.0624 10.3666 87.472 10.0999 87.8148 9.757C88.1672 9.4046 88.4387 8.99505 88.6292 8.52836C88.8292 8.06166 88.9292 7.5521 88.9292 6.99969C88.9292 6.44727 88.8292 5.93772 88.6292 5.47102C88.4387 5.00433 88.1672 4.59954 87.8148 4.25666C87.472 3.90426 87.0624 3.63281 86.5862 3.44233C86.1195 3.25184 85.6099 3.15659 85.0575 3.15659C84.4956 3.15659 83.9765 3.25184 83.5003 3.44233C83.0336 3.63281 82.624 3.90426 82.2716 4.25666C81.9192 4.59954 81.643 5.00433 81.443 5.47102C81.2525 5.93772 81.1573 6.44727 81.1573 6.99969C81.1573 7.5521 81.2525 8.06166 81.443 8.52836C81.643 8.99505 81.9192 9.4046 82.2716 9.757C82.624 10.0999 83.0336 10.3666 83.5003 10.5571C83.9765 10.7475 84.4956 10.8428 85.0575 10.8428ZM93.7715 12V5.27101L94.1143 5.62818H90.9999V4.4281H97.9146V5.62818H94.8144L95.143 5.27101V12H93.7715ZM103.332 12.0857C102.703 12.0857 102.127 11.9429 101.603 11.6571C101.089 11.3619 100.674 10.9285 100.36 10.357C100.055 9.78558 99.9027 9.07125 99.9027 8.21405C99.9027 7.35685 100.05 6.64252 100.346 6.07106C100.65 5.4996 101.06 5.071 101.574 4.78527C102.098 4.49953 102.684 4.35667 103.332 4.35667C104.074 4.35667 104.732 4.51858 105.303 4.84241C105.875 5.16624 106.327 5.61865 106.66 6.19964C106.994 6.7711 107.16 7.44257 107.16 8.21405C107.16 8.98553 106.994 9.66176 106.66 10.2427C106.327 10.8237 105.875 11.2761 105.303 11.6C104.732 11.9238 104.074 12.0857 103.332 12.0857ZM99.317 14.7716V4.4281H100.631V6.47109L100.546 8.22834L100.689 9.98559V14.7716H99.317ZM103.217 10.8856C103.703 10.8856 104.136 10.7761 104.517 10.5571C104.908 10.338 105.213 10.0284 105.432 9.62842C105.66 9.21888 105.775 8.74742 105.775 8.21405C105.775 7.67116 105.66 7.20446 105.432 6.81396C105.213 6.41394 104.908 6.1044 104.517 5.88533C104.136 5.66627 103.703 5.55674 103.217 5.55674C102.741 5.55674 102.308 5.66627 101.917 5.88533C101.536 6.1044 101.231 6.41394 101.003 6.81396C100.784 7.20446 100.674 7.67116 100.674 8.21405C100.674 8.74742 100.784 9.21888 101.003 9.62842C101.231 10.0284 101.536 10.338 101.917 10.5571C102.308 10.7761 102.741 10.8856 103.217 10.8856ZM113.726 12V10.3999L113.655 10.0999V7.37114C113.655 6.79015 113.484 6.34251 113.141 6.0282C112.807 5.70437 112.302 5.54246 111.626 5.54246C111.179 5.54246 110.74 5.61865 110.312 5.77104C109.883 5.91391 109.521 6.10916 109.226 6.35679L108.655 5.32816C109.045 5.01385 109.512 4.77574 110.055 4.61383C110.607 4.44239 111.183 4.35667 111.783 4.35667C112.822 4.35667 113.622 4.60907 114.184 5.11386C114.745 5.61865 115.026 6.39013 115.026 7.42829V12H113.726ZM111.241 12.0857C110.679 12.0857 110.183 11.9905 109.755 11.8C109.336 11.6095 109.012 11.3476 108.783 11.0142C108.555 10.6713 108.44 10.2856 108.44 9.85701C108.44 9.44746 108.536 9.07601 108.726 8.74265C108.926 8.4093 109.245 8.14262 109.683 7.94261C110.131 7.74259 110.731 7.64259 111.483 7.64259H113.884V8.62836H111.541C110.855 8.62836 110.393 8.74265 110.155 8.97124C109.917 9.19983 109.798 9.47603 109.798 9.79986C109.798 10.1713 109.945 10.4713 110.24 10.6999C110.536 10.919 110.945 11.0285 111.469 11.0285C111.983 11.0285 112.431 10.9142 112.812 10.6856C113.203 10.457 113.484 10.1237 113.655 9.68557L113.926 10.6285C113.745 11.0761 113.426 11.4333 112.969 11.7C112.512 11.9571 111.936 12.0857 111.241 12.0857ZM120.796 12.0857C120.025 12.0857 119.334 11.919 118.725 11.5857C118.125 11.2523 117.653 10.7952 117.31 10.2142C116.968 9.63319 116.796 8.96648 116.796 8.21405C116.796 7.46162 116.968 6.79492 117.31 6.21393C117.653 5.63294 118.125 5.18053 118.725 4.8567C119.334 4.52335 120.025 4.35667 120.796 4.35667C121.482 4.35667 122.092 4.49477 122.625 4.77098C123.168 5.03766 123.587 5.43769 123.882 5.97105L122.839 6.64252C122.592 6.27107 122.287 5.99963 121.925 5.82819C121.573 5.64722 121.192 5.55674 120.782 5.55674C120.287 5.55674 119.844 5.66627 119.453 5.88533C119.063 6.1044 118.753 6.41394 118.525 6.81396C118.296 7.20446 118.182 7.67116 118.182 8.21405C118.182 8.75694 118.296 9.2284 118.525 9.62842C118.753 10.0284 119.063 10.338 119.453 10.5571C119.844 10.7761 120.287 10.8856 120.782 10.8856C121.192 10.8856 121.573 10.7999 121.925 10.6285C122.287 10.4475 122.592 10.1713 122.839 9.79986L123.882 10.457C123.587 10.9809 123.168 11.3857 122.625 11.6714C122.092 11.9476 121.482 12.0857 120.796 12.0857ZM124.177 11.9857L124.263 10.8285C124.33 10.838 124.392 10.8475 124.449 10.8571C124.506 10.8666 124.558 10.8714 124.606 10.8714C124.911 10.8714 125.149 10.7666 125.32 10.5571C125.501 10.3475 125.635 10.0713 125.72 9.72843C125.806 9.37603 125.868 8.98077 125.906 8.54264C125.944 8.10452 125.973 7.6664 125.992 7.22828L126.12 4.4281H131.935V12H130.564V5.22815L130.892 5.62818H127.006L127.321 5.21386L127.221 7.314C127.192 7.9807 127.14 8.60455 127.063 9.18554C126.987 9.76653 126.868 10.2761 126.706 10.7142C126.554 11.1523 126.34 11.4952 126.063 11.7428C125.797 11.9905 125.449 12.1143 125.02 12.1143C124.897 12.1143 124.763 12.1 124.62 12.0714C124.487 12.0524 124.339 12.0238 124.177 11.9857ZM137.959 12.0857C137.149 12.0857 136.435 11.919 135.816 11.5857C135.206 11.2523 134.73 10.7952 134.387 10.2142C134.054 9.63319 133.887 8.96648 133.887 8.21405C133.887 7.46162 134.049 6.79492 134.373 6.21393C134.706 5.63294 135.159 5.18053 135.73 4.8567C136.311 4.52335 136.963 4.35667 137.687 4.35667C138.421 4.35667 139.068 4.51858 139.63 4.84241C140.192 5.16624 140.63 5.62341 140.945 6.21393C141.268 6.79492 141.43 7.47591 141.43 8.25691C141.43 8.31406 141.426 8.38073 141.416 8.45692C141.416 8.53312 141.411 8.60455 141.402 8.67122H134.958V7.68545H140.687L140.13 8.02832C140.14 7.54258 140.04 7.10922 139.83 6.72824C139.621 6.34727 139.33 6.05201 138.959 5.84248C138.597 5.62341 138.173 5.51388 137.687 5.51388C137.211 5.51388 136.787 5.62341 136.416 5.84248C136.044 6.05201 135.754 6.35203 135.544 6.74253C135.335 7.12351 135.23 7.56163 135.23 8.0569V8.28548C135.23 8.79028 135.344 9.24269 135.573 9.64271C135.811 10.0332 136.14 10.338 136.559 10.5571C136.978 10.7761 137.459 10.8856 138.002 10.8856C138.449 10.8856 138.854 10.8094 139.216 10.6571C139.587 10.5047 139.911 10.2761 140.187 9.9713L140.945 10.8571C140.602 11.2571 140.173 11.5619 139.659 11.7714C139.154 11.981 138.587 12.0857 137.959 12.0857ZM143.558 12V4.4281H147.073C147.958 4.4281 148.654 4.59954 149.158 4.94242C149.673 5.27577 149.93 5.75199 149.93 6.37108C149.93 6.99017 149.687 7.47115 149.201 7.81403C148.725 8.14738 148.092 8.31406 147.301 8.31406L147.515 7.94261C148.42 7.94261 149.092 8.10928 149.53 8.44264C149.968 8.77599 150.187 9.2665 150.187 9.91416C150.187 10.5713 149.939 11.0857 149.444 11.4571C148.958 11.819 148.211 12 147.201 12H143.558ZM144.901 10.9428H147.101C147.673 10.9428 148.101 10.8571 148.387 10.6856C148.673 10.5047 148.815 10.2189 148.815 9.82844C148.815 9.42841 148.682 9.13792 148.415 8.95695C148.158 8.76647 147.749 8.67122 147.187 8.67122H144.901V10.9428ZM144.901 7.68545H146.958C147.482 7.68545 147.877 7.5902 148.144 7.39971C148.42 7.1997 148.558 6.92349 148.558 6.57109C148.558 6.20916 148.42 5.93772 148.144 5.75676C147.877 5.57579 147.482 5.48531 146.958 5.48531H144.901V7.68545ZM156.977 12V10.3999L156.905 10.0999V7.37114C156.905 6.79015 156.734 6.34251 156.391 6.0282C156.058 5.70437 155.553 5.54246 154.877 5.54246C154.429 5.54246 153.991 5.61865 153.562 5.77104C153.134 5.91391 152.772 6.10916 152.477 6.35679L151.905 5.32816C152.296 5.01385 152.762 4.77574 153.305 4.61383C153.858 4.44239 154.434 4.35667 155.034 4.35667C156.072 4.35667 156.872 4.60907 157.434 5.11386C157.996 5.61865 158.277 6.39013 158.277 7.42829V12H156.977ZM154.491 12.0857C153.929 12.0857 153.434 11.9905 153.005 11.8C152.586 11.6095 152.262 11.3476 152.034 11.0142C151.805 10.6713 151.691 10.2856 151.691 9.85701C151.691 9.44746 151.786 9.07601 151.977 8.74265C152.177 8.4093 152.496 8.14262 152.934 7.94261C153.381 7.74259 153.981 7.64259 154.734 7.64259H157.134V8.62836H154.791C154.105 8.62836 153.643 8.74265 153.405 8.97124C153.167 9.19983 153.048 9.47603 153.048 9.79986C153.048 10.1713 153.196 10.4713 153.491 10.6999C153.786 10.919 154.196 11.0285 154.72 11.0285C155.234 11.0285 155.682 10.9142 156.062 10.6856C156.453 10.457 156.734 10.1237 156.905 9.68557L157.177 10.6285C156.996 11.0761 156.677 11.4333 156.22 11.7C155.762 11.9571 155.186 12.0857 154.491 12.0857ZM165.59 12V9.34269L165.804 9.59985H163.39C162.38 9.59985 161.59 9.38555 161.018 8.95695C160.456 8.52836 160.175 7.90451 160.175 7.08541C160.175 6.20916 160.475 5.54722 161.075 5.09957C161.685 4.65192 162.494 4.4281 163.504 4.4281H166.818V12H165.59ZM160.104 12L162.161 9.09982H163.575L161.575 12H160.104ZM165.59 8.91409V5.24244L165.804 5.62818H163.547C162.918 5.62818 162.432 5.74723 162.09 5.98534C161.747 6.21393 161.575 6.5949 161.575 7.12827C161.575 8.11881 162.213 8.61408 163.49 8.61408H165.804L165.59 8.91409ZM80.5572 34V23.9994H81.9716V31.7141L87.8863 23.9994H89.2006V34H87.8005V26.2995L81.8716 34H80.5572ZM92.09 34V26.4281H93.4615V29.6426H97.7761V26.4281H99.1476V34H97.7761V30.8284H93.4615V34H92.09ZM106.329 34.1143C106.319 34.1143 106.286 34.1143 106.229 34.1143C106.181 34.1143 106.134 34.1143 106.086 34.1143C106.038 34.1143 106.01 34.1143 106 34.1143C104.448 34.0952 103.243 33.7524 102.386 33.0857C101.529 32.4094 101.1 31.4475 101.1 30.1998C101.1 28.9616 101.529 28.0139 102.386 27.3567C103.253 26.69 104.472 26.3519 106.043 26.3424C106.062 26.3424 106.091 26.3424 106.129 26.3424C106.177 26.3424 106.219 26.3424 106.257 26.3424C106.305 26.3424 106.334 26.3424 106.343 26.3424C107.934 26.3424 109.167 26.6757 110.043 27.3424C110.929 28.0092 111.372 28.9616 111.372 30.1998C111.372 31.457 110.929 32.4237 110.043 33.0999C109.158 33.7762 107.92 34.1143 106.329 34.1143ZM106.3 32.9142C107.129 32.9142 107.815 32.8094 108.358 32.5999C108.91 32.3904 109.324 32.0856 109.601 31.6856C109.877 31.2855 110.015 30.7903 110.015 30.1998C110.015 29.6188 109.877 29.133 109.601 28.7425C109.324 28.352 108.91 28.0568 108.358 27.8568C107.815 27.6567 107.129 27.5567 106.3 27.5567C106.281 27.5567 106.243 27.5567 106.186 27.5567C106.129 27.5567 106.096 27.5567 106.086 27.5567C105.276 27.5567 104.6 27.6615 104.057 27.871C103.524 28.0711 103.124 28.3663 102.857 28.7568C102.591 29.1473 102.457 29.6283 102.457 30.1998C102.457 30.7808 102.591 31.2713 102.857 31.6713C103.133 32.0713 103.538 32.3761 104.072 32.5856C104.615 32.7952 105.286 32.9047 106.086 32.9142C106.105 32.9142 106.138 32.9142 106.186 32.9142C106.243 32.9142 106.281 32.9142 106.3 32.9142ZM105.557 36.7716V23.3993H106.9V36.7716H105.557ZM117.325 34.0857C116.697 34.0857 116.12 33.9429 115.596 33.6571C115.082 33.3619 114.668 32.9285 114.354 32.357C114.049 31.7856 113.896 31.0712 113.896 30.2141C113.896 29.3569 114.044 28.6425 114.339 28.0711C114.644 27.4996 115.054 27.071 115.568 26.7853C116.092 26.4995 116.677 26.3567 117.325 26.3567C118.068 26.3567 118.725 26.5186 119.297 26.8424C119.868 27.1662 120.321 27.6187 120.654 28.1996C120.987 28.7711 121.154 29.4426 121.154 30.2141C121.154 30.9855 120.987 31.6618 120.654 32.2427C120.321 32.8237 119.868 33.2761 119.297 33.6C118.725 33.9238 118.068 34.0857 117.325 34.0857ZM113.311 36.7716V26.4281H114.625V28.4711L114.539 30.2283L114.682 31.9856V36.7716H113.311ZM117.211 32.8856C117.697 32.8856 118.13 32.7761 118.511 32.5571C118.901 32.338 119.206 32.0284 119.425 31.6284C119.654 31.2189 119.768 30.7474 119.768 30.2141C119.768 29.6712 119.654 29.2045 119.425 28.814C119.206 28.4139 118.901 28.1044 118.511 27.8853C118.13 27.6663 117.697 27.5567 117.211 27.5567C116.735 27.5567 116.301 27.6663 115.911 27.8853C115.53 28.1044 115.225 28.4139 114.996 28.814C114.777 29.2045 114.668 29.6712 114.668 30.2141C114.668 30.7474 114.777 31.2189 114.996 31.6284C115.225 32.0284 115.53 32.338 115.911 32.5571C116.301 32.7761 116.735 32.8856 117.211 32.8856ZM127.72 34V32.3999L127.649 32.0999V29.3711C127.649 28.7902 127.477 28.3425 127.134 28.0282C126.801 27.7044 126.296 27.5425 125.62 27.5425C125.172 27.5425 124.734 27.6187 124.305 27.771C123.877 27.9139 123.515 28.1092 123.22 28.3568L122.648 27.3282C123.039 27.0139 123.505 26.7757 124.048 26.6138C124.601 26.4424 125.177 26.3567 125.777 26.3567C126.815 26.3567 127.615 26.6091 128.177 27.1139C128.739 27.6187 129.02 28.3901 129.02 29.4283V34H127.72ZM125.234 34.0857C124.672 34.0857 124.177 33.9905 123.748 33.8C123.329 33.6095 123.005 33.3476 122.777 33.0142C122.548 32.6713 122.434 32.2856 122.434 31.857C122.434 31.4475 122.529 31.076 122.72 30.7427C122.92 30.4093 123.239 30.1426 123.677 29.9426C124.125 29.7426 124.725 29.6426 125.477 29.6426H127.877V30.6284H125.534C124.848 30.6284 124.386 30.7427 124.148 30.9712C123.91 31.1998 123.791 31.476 123.791 31.7999C123.791 32.1713 123.939 32.4713 124.234 32.6999C124.529 32.919 124.939 33.0285 125.463 33.0285C125.977 33.0285 126.425 32.9142 126.806 32.6856C127.196 32.457 127.477 32.1237 127.649 31.6856L127.92 32.6285C127.739 33.0761 127.42 33.4333 126.963 33.7C126.506 33.9571 125.929 34.0857 125.234 34.0857ZM134.79 34.0857C134.018 34.0857 133.328 33.919 132.718 33.5857C132.118 33.2523 131.647 32.7952 131.304 32.2142C130.961 31.6332 130.79 30.9665 130.79 30.2141C130.79 29.4616 130.961 28.7949 131.304 28.2139C131.647 27.6329 132.118 27.1805 132.718 26.8567C133.328 26.5233 134.018 26.3567 134.79 26.3567C135.476 26.3567 136.085 26.4948 136.619 26.771C137.162 27.0377 137.581 27.4377 137.876 27.9711L136.833 28.6425C136.585 28.2711 136.281 27.9996 135.919 27.8282C135.566 27.6472 135.185 27.5567 134.776 27.5567C134.28 27.5567 133.838 27.6663 133.447 27.8853C133.057 28.1044 132.747 28.4139 132.518 28.814C132.29 29.2045 132.176 29.6712 132.176 30.2141C132.176 30.7569 132.29 31.2284 132.518 31.6284C132.747 32.0284 133.057 32.338 133.447 32.5571C133.838 32.7761 134.28 32.8856 134.776 32.8856C135.185 32.8856 135.566 32.7999 135.919 32.6285C136.281 32.4475 136.585 32.1713 136.833 31.7999L137.876 32.457C137.581 32.9809 137.162 33.3857 136.619 33.6714C136.085 33.9476 135.476 34.0857 134.79 34.0857ZM141.054 34V27.271L141.397 27.6282H138.282V26.4281H145.197V27.6282H142.097L142.425 27.271V34H141.054ZM150.614 34.0857C149.985 34.0857 149.409 33.9429 148.885 33.6571C148.371 33.3619 147.957 32.9285 147.642 32.357C147.338 31.7856 147.185 31.0712 147.185 30.2141C147.185 29.3569 147.333 28.6425 147.628 28.0711C147.933 27.4996 148.342 27.071 148.857 26.7853C149.381 26.4995 149.966 26.3567 150.614 26.3567C151.357 26.3567 152.014 26.5186 152.586 26.8424C153.157 27.1662 153.609 27.6187 153.943 28.1996C154.276 28.7711 154.443 29.4426 154.443 30.2141C154.443 30.9855 154.276 31.6618 153.943 32.2427C153.609 32.8237 153.157 33.2761 152.586 33.6C152.014 33.9238 151.357 34.0857 150.614 34.0857ZM146.6 36.7716V26.4281H147.914V28.4711L147.828 30.2283L147.971 31.9856V36.7716H146.6ZM150.5 32.8856C150.985 32.8856 151.419 32.7761 151.8 32.5571C152.19 32.338 152.495 32.0284 152.714 31.6284C152.943 31.2189 153.057 30.7474 153.057 30.2141C153.057 29.6712 152.943 29.2045 152.714 28.814C152.495 28.4139 152.19 28.1044 151.8 27.8853C151.419 27.6663 150.985 27.5567 150.5 27.5567C150.024 27.5567 149.59 27.6663 149.2 27.8853C148.819 28.1044 148.514 28.4139 148.285 28.814C148.066 29.2045 147.957 29.6712 147.957 30.2141C147.957 30.7474 148.066 31.2189 148.285 31.6284C148.514 32.0284 148.819 32.338 149.2 32.5571C149.59 32.7761 150.024 32.8856 150.5 32.8856ZM156.612 36.8573C156.25 36.8573 155.898 36.7954 155.555 36.6716C155.212 36.5573 154.917 36.3859 154.669 36.1573L155.255 35.1286C155.445 35.3096 155.655 35.4477 155.883 35.543C156.112 35.6382 156.355 35.6858 156.612 35.6858C156.945 35.6858 157.222 35.6001 157.441 35.4287C157.66 35.2572 157.864 34.9524 158.055 34.5143L158.526 33.4714L158.669 33.3L161.641 26.4281H162.984L159.312 34.7572C159.093 35.2906 158.845 35.7096 158.569 36.0144C158.303 36.3192 158.007 36.5335 157.683 36.6573C157.36 36.7906 157.002 36.8573 156.612 36.8573ZM158.412 34.2429L154.955 26.4281H156.383L159.326 33.1714L158.412 34.2429ZM169.874 34L166.945 30.3141L168.074 29.6283L171.488 34H169.874ZM164.388 34V26.4281H165.76V34H164.388ZM165.345 30.7998V29.6283H167.845V30.7998H165.345ZM168.188 30.3712L166.917 30.1998L169.817 26.4281H171.288L168.188 30.3712ZM174.301 34V27.271L174.644 27.6282H171.529V26.4281H178.444V27.6282H175.344L175.673 27.271V34H174.301ZM180.232 36.8573C179.87 36.8573 179.518 36.7954 179.175 36.6716C178.832 36.5573 178.537 36.3859 178.289 36.1573L178.875 35.1286C179.066 35.3096 179.275 35.4477 179.504 35.543C179.732 35.6382 179.975 35.6858 180.232 35.6858C180.566 35.6858 180.842 35.6001 181.061 35.4287C181.28 35.2572 181.485 34.9524 181.675 34.5143L182.147 33.4714L182.29 33.3L185.261 26.4281H186.604L182.932 34.7572C182.713 35.2906 182.466 35.7096 182.19 36.0144C181.923 36.3192 181.628 36.5335 181.304 36.6573C180.98 36.7906 180.623 36.8573 180.232 36.8573ZM182.032 34.2429L178.575 26.4281H180.004L182.947 33.1714L182.032 34.2429ZM192.023 34.0857C191.394 34.0857 190.818 33.9429 190.294 33.6571C189.78 33.3619 189.366 32.9285 189.051 32.357C188.746 31.7856 188.594 31.0712 188.594 30.2141C188.594 29.3569 188.742 28.6425 189.037 28.0711C189.342 27.4996 189.751 27.071 190.266 26.7853C190.789 26.4995 191.375 26.3567 192.023 26.3567C192.766 26.3567 193.423 26.5186 193.994 26.8424C194.566 27.1662 195.018 27.6187 195.352 28.1996C195.685 28.7711 195.852 29.4426 195.852 30.2141C195.852 30.9855 195.685 31.6618 195.352 32.2427C195.018 32.8237 194.566 33.2761 193.994 33.6C193.423 33.9238 192.766 34.0857 192.023 34.0857ZM188.008 36.7716V26.4281H189.323V28.4711L189.237 30.2283L189.38 31.9856V36.7716H188.008ZM191.909 32.8856C192.394 32.8856 192.828 32.7761 193.209 32.5571C193.599 32.338 193.904 32.0284 194.123 31.6284C194.352 31.2189 194.466 30.7474 194.466 30.2141C194.466 29.6712 194.352 29.2045 194.123 28.814C193.904 28.4139 193.599 28.1044 193.209 27.8853C192.828 27.6663 192.394 27.5567 191.909 27.5567C191.432 27.5567 190.999 27.6663 190.608 27.8853C190.228 28.1044 189.923 28.4139 189.694 28.814C189.475 29.2045 189.366 29.6712 189.366 30.2141C189.366 30.7474 189.475 31.2189 189.694 31.6284C189.923 32.0284 190.228 32.338 190.608 32.5571C190.999 32.7761 191.432 32.8856 191.909 32.8856ZM197.844 34V26.4281H199.216V29.6426H203.53V26.4281H204.902V34H203.53V30.8284H199.216V34H197.844ZM212.212 34V32.3999L212.14 32.0999V29.3711C212.14 28.7902 211.969 28.3425 211.626 28.0282C211.293 27.7044 210.788 27.5425 210.112 27.5425C209.664 27.5425 209.226 27.6187 208.797 27.771C208.369 27.9139 208.007 28.1092 207.712 28.3568L207.14 27.3282C207.531 27.0139 207.997 26.7757 208.54 26.6138C209.093 26.4424 209.669 26.3567 210.269 26.3567C211.307 26.3567 212.107 26.6091 212.669 27.1139C213.231 27.6187 213.512 28.3901 213.512 29.4283V34H212.212ZM209.726 34.0857C209.164 34.0857 208.669 33.9905 208.24 33.8C207.821 33.6095 207.497 33.3476 207.269 33.0142C207.04 32.6713 206.926 32.2856 206.926 31.857C206.926 31.4475 207.021 31.076 207.212 30.7427C207.412 30.4093 207.731 30.1426 208.169 29.9426C208.616 29.7426 209.216 29.6426 209.969 29.6426H212.369V30.6284H210.026C209.34 30.6284 208.878 30.7427 208.64 30.9712C208.402 31.1998 208.283 31.476 208.283 31.7999C208.283 32.1713 208.431 32.4713 208.726 32.6999C209.021 32.919 209.431 33.0285 209.955 33.0285C210.469 33.0285 210.917 32.9142 211.297 32.6856C211.688 32.457 211.969 32.1237 212.14 31.6856L212.412 32.6285C212.231 33.0761 211.912 33.4333 211.455 33.7C210.997 33.9571 210.421 34.0857 209.726 34.0857ZM220.825 34V31.3427L221.039 31.5999H218.625C217.615 31.5999 216.825 31.3856 216.253 30.957C215.691 30.5284 215.41 29.9045 215.41 29.0854C215.41 28.2092 215.71 27.5472 216.31 27.0996C216.92 26.6519 217.729 26.4281 218.739 26.4281H222.053V34H220.825ZM215.339 34L217.396 31.0998H218.81L216.81 34H215.339ZM220.825 30.9141V27.2424L221.039 27.6282H218.782C218.153 27.6282 217.667 27.7472 217.325 27.9853C216.982 28.2139 216.81 28.5949 216.81 29.1283C216.81 30.1188 217.448 30.6141 218.725 30.6141H221.039L220.825 30.9141ZM87.2862 57L83.6574 52.0711L84.8146 51.3568L88.9149 57H87.2862ZM80.5572 57V46.9994H81.9573V57H80.5572ZM81.5287 52.5997V51.3425H84.7718V52.5997H81.5287ZM84.9432 52.1568L83.6289 51.9568L87.2148 46.9994H88.7435L84.9432 52.1568ZM93.2961 57.0857C92.5341 57.0857 91.8579 56.919 91.2674 56.5857C90.6769 56.2523 90.2102 55.7952 89.8673 55.2142C89.5244 54.6237 89.353 53.957 89.353 53.2141C89.353 52.4616 89.5244 51.7949 89.8673 51.2139C90.2102 50.6329 90.6769 50.1805 91.2674 49.8567C91.8579 49.5233 92.5341 49.3567 93.2961 49.3567C94.0485 49.3567 94.72 49.5233 95.3105 49.8567C95.9105 50.1805 96.3772 50.6329 96.7106 51.2139C97.0535 51.7854 97.2249 52.4521 97.2249 53.2141C97.2249 53.9665 97.0535 54.6332 96.7106 55.2142C96.3772 55.7952 95.9105 56.2523 95.3105 56.5857C94.72 56.919 94.0485 57.0857 93.2961 57.0857ZM93.2961 55.8856C93.7818 55.8856 94.2152 55.7761 94.5962 55.5571C94.9867 55.338 95.2914 55.0284 95.5105 54.6284C95.7296 54.2189 95.8391 53.7474 95.8391 53.2141C95.8391 52.6712 95.7296 52.2045 95.5105 51.814C95.2914 51.4139 94.9867 51.1044 94.5962 50.8853C94.2152 50.6663 93.7818 50.5567 93.2961 50.5567C92.8103 50.5567 92.377 50.6663 91.996 50.8853C91.615 51.1044 91.3103 51.4139 91.0817 51.814C90.8531 52.2045 90.7388 52.6712 90.7388 53.2141C90.7388 53.7474 90.8531 54.2189 91.0817 54.6284C91.3103 55.0284 91.615 55.338 91.996 55.5571C92.377 55.7761 92.8103 55.8856 93.2961 55.8856ZM99.2054 57V49.4281H100.62L103.877 55.0284H103.306L106.649 49.4281H107.934V57H106.692V50.9711L106.92 51.0996L103.863 56.1428H103.263L100.191 50.9996L100.463 50.9425V57H99.2054ZM110.604 57V49.4281H117.619V57H116.247V50.2853L116.576 50.6282H111.647L111.975 50.2853V57H110.604ZM124.916 57V55.3999L124.844 55.0999V52.3711C124.844 51.7902 124.673 51.3425 124.33 51.0282C123.997 50.7044 123.492 50.5425 122.816 50.5425C122.368 50.5425 121.93 50.6187 121.501 50.771C121.073 50.9139 120.711 51.1092 120.415 51.3568L119.844 50.3282C120.234 50.0139 120.701 49.7757 121.244 49.6138C121.796 49.4424 122.373 49.3567 122.973 49.3567C124.011 49.3567 124.811 49.6091 125.373 50.1139C125.935 50.6187 126.216 51.3901 126.216 52.4283V57H124.916ZM122.43 57.0857C121.868 57.0857 121.373 56.9905 120.944 56.8C120.525 56.6095 120.201 56.3476 119.973 56.0142C119.744 55.6713 119.63 55.2856 119.63 54.857C119.63 54.4475 119.725 54.076 119.915 53.7427C120.115 53.4093 120.434 53.1426 120.873 52.9426C121.32 52.7426 121.92 52.6426 122.673 52.6426H125.073V53.6284H122.73C122.044 53.6284 121.582 53.7427 121.344 53.9712C121.106 54.1998 120.987 54.476 120.987 54.7999C120.987 55.1713 121.134 55.4713 121.43 55.6999C121.725 55.919 122.135 56.0285 122.658 56.0285C123.173 56.0285 123.62 55.9142 124.001 55.6856C124.392 55.457 124.673 55.1237 124.844 54.6856L125.116 55.6285C124.935 56.0761 124.616 56.4333 124.158 56.7C123.701 56.9571 123.125 57.0857 122.43 57.0857ZM128.685 57V49.4281H130.057V52.6426H134.372V49.4281H135.743V57H134.372V53.8284H130.057V57H128.685ZM138.41 57V49.4281H139.781V54.9427L144.424 49.4281H145.667V57H144.296V51.4854L139.667 57H138.41ZM153.173 57V54.3427L153.387 54.5999H150.973C149.963 54.5999 149.172 54.3856 148.601 53.957C148.039 53.5284 147.758 52.9045 147.758 52.0854C147.758 51.2092 148.058 50.5472 148.658 50.0996C149.268 49.6519 150.077 49.4281 151.087 49.4281H154.401V57H153.173ZM147.687 57L149.744 54.0998H151.158L149.158 57H147.687ZM153.173 53.9141V50.2424L153.387 50.6282H151.13C150.501 50.6282 150.015 50.7472 149.672 50.9853C149.33 51.2139 149.158 51.5949 149.158 52.1283C149.158 53.1188 149.796 53.6141 151.073 53.6141H153.387L153.173 53.9141Z" fill="white"/>
</g>
</g>
<defs>
<clipPath id="clip0_5_161">
<rect width="227" height="60" fill="white"/>
</clipPath>
</defs>
</svg>
