<svg width="620" height="396" viewBox="0 0 620 396" fill="none" xmlns="http://www.w3.org/2000/svg">
<mask id="mask0_495_3" style="mask-type:luminance" maskUnits="userSpaceOnUse" x="63" y="223" width="159" height="115">
<path d="M63.3054 223.551C82.4473 323.011 163.185 337.826 163.185 337.826L221.414 242.925C221.414 242.925 128.346 268.515 65.6366 225.649L63.3054 223.551Z" fill="white"/>
</mask>
<g mask="url(#mask0_495_3)">
<mask id="mask1_495_3" style="mask-type:luminance" maskUnits="userSpaceOnUse" x="59" y="227" width="159" height="115">
<path d="M217.891 227.669H59.7827V341.66H217.891V227.669Z" fill="white"/>
</mask>
<g mask="url(#mask1_495_3)">
<path d="M217.891 227.669H59.7827V341.66H217.891V227.669Z" fill="url(#paint0_linear_495_3)"/>
</g>
</g>
<mask id="mask2_495_3" style="mask-type:luminance" maskUnits="userSpaceOnUse" x="163" y="241" width="169" height="102">
<path d="M163.185 337.827C297.101 367.017 331.059 241.708 331.059 241.708C273.607 286.828 207.97 265.019 207.97 265.019L163.185 337.827Z" fill="white"/>
</mask>
<g mask="url(#mask2_495_3)">
<mask id="mask3_495_3" style="mask-type:luminance" maskUnits="userSpaceOnUse" x="161" y="244" width="169" height="126">
<path d="M329.841 244.065H161.968V369.296H329.841V244.065Z" fill="white"/>
</mask>
<g mask="url(#mask3_495_3)">
<path d="M329.841 244.065H161.968V369.296H329.841V244.065Z" fill="url(#paint1_linear_495_3)"/>
</g>
</g>
<mask id="mask4_495_3" style="mask-type:luminance" maskUnits="userSpaceOnUse" x="63" y="223" width="159" height="72">
<path d="M63.3054 223.551C66.8744 243.366 74.0753 262.351 84.5454 279.549C105.915 313.894 205.639 278.824 196.211 284.082L221.44 242.925C221.44 242.925 128.372 268.515 65.6625 225.649L63.3054 223.551Z" fill="white"/>
</mask>
<g mask="url(#mask4_495_3)">
<mask id="mask5_495_3" style="mask-type:luminance" maskUnits="userSpaceOnUse" x="59" y="226" width="159" height="91">
<path d="M217.891 226.012H59.7827V316.432H217.891V226.012Z" fill="white"/>
</mask>
<g mask="url(#mask5_495_3)">
<path d="M217.891 226.012H59.7827V316.354H217.891V226.012Z" fill="url(#paint2_linear_495_3)"/>
</g>
</g>
<path d="M63.3054 223.551C66.8744 243.366 74.0753 262.351 84.5454 279.549C105.915 313.894 205.639 278.824 196.211 284.082L221.44 242.925C221.44 242.925 128.372 268.515 65.6625 225.649L63.3054 223.551Z" fill="white" stroke="#BCBEC0" stroke-width="1.16"/>
<mask id="mask6_495_3" style="mask-type:luminance" maskUnits="userSpaceOnUse" x="183" y="241" width="149" height="73">
<path d="M183.078 305.632C183.078 305.632 273.193 327.855 298.318 299.778C313.233 282.956 324.434 263.177 331.188 241.734C273.737 286.853 208.1 265.045 208.1 265.045L183.078 305.632Z" fill="white"/>
</mask>
<g mask="url(#mask6_495_3)">
<mask id="mask7_495_3" style="mask-type:luminance" maskUnits="userSpaceOnUse" x="180" y="244" width="149" height="87">
<path d="M328.831 244.738H180.747V330.781H328.831V244.738Z" fill="white"/>
</mask>
<g mask="url(#mask7_495_3)">
<path d="M328.831 244.738H180.747V330.781H328.831V244.738Z" fill="url(#paint3_linear_495_3)"/>
</g>
</g>
<path d="M183.078 305.632C183.078 305.632 273.193 327.855 298.318 299.778C313.233 282.956 324.434 263.177 331.188 241.734C273.737 286.853 208.1 265.045 208.1 265.045L183.078 305.632Z" fill="white" stroke="#BCBEC0" stroke-width="1.16"/>
<mask id="mask8_495_3" style="mask-type:luminance" maskUnits="userSpaceOnUse" x="72" y="257" width="131" height="53">
<path d="M72.8635 257.481C65.5849 254.244 126.896 289.521 202.945 273.281L180.462 309.542C180.462 309.542 107.702 313.091 89.5964 289.314C79.883 276.57 72.8635 257.43 72.8635 257.43" fill="white"/>
</mask>
<g mask="url(#mask8_495_3)">
<mask id="mask9_495_3" style="mask-type:luminance" maskUnits="userSpaceOnUse" x="70" y="260" width="138" height="59">
<path d="M207.504 260.045H70.1697V318.452H207.504V260.045Z" fill="white"/>
</mask>
<g mask="url(#mask9_495_3)">
<path d="M207.504 260.045H70.1697V318.452H207.504V260.045Z" fill="url(#paint4_linear_495_3)"/>
</g>
</g>
<mask id="mask10_495_3" style="mask-type:luminance" maskUnits="userSpaceOnUse" x="176" y="278" width="140" height="47">
<path d="M194.268 286.672C194.268 286.672 242.576 310.579 315.31 278.539C315.31 278.539 291.221 311.226 280.212 315.526C280.212 315.526 239.416 335.314 176.887 314.904L194.268 286.672Z" fill="white"/>
</mask>
<g mask="url(#mask10_495_3)">
<mask id="mask11_495_3" style="mask-type:luminance" maskUnits="userSpaceOnUse" x="177" y="278" width="140" height="58">
<path d="M316.191 278.436H177.794V335.185H316.191V278.436Z" fill="white"/>
</mask>
<g mask="url(#mask11_495_3)">
<path d="M316.191 278.436H177.794V335.185H316.191V278.436Z" fill="url(#paint5_linear_495_3)"/>
</g>
</g>
<path d="M335.592 196.2C335.592 196.64 335.592 197.081 335.592 197.547C335.561 231.2 323.204 263.676 300.855 288.837C278.507 313.999 247.715 330.104 214.299 334.107C180.884 338.111 147.159 329.737 119.498 310.567C91.8372 291.397 72.1568 262.76 64.176 230.067C56.1952 197.374 60.4668 162.89 76.1836 133.132C91.9005 103.375 117.974 80.4042 149.476 68.5623C180.978 56.7204 215.727 56.8272 247.156 68.8626C278.585 80.898 304.517 104.028 320.05 133.882H384.806L379.833 119.429C371.777 116.606 360.665 117.565 350.926 119.429C346.794 111.482 342.048 103.87 336.731 96.6624C342.656 89.0754 346.927 80.3318 349.268 70.9946L336.731 56.7749C328.158 57.1894 318.185 62.2918 309.845 67.731C302.13 61.0974 293.844 55.1602 285.082 49.9889C287.507 40.6887 287.965 30.9852 286.429 21.4978L269.54 13.2095C261.77 16.991 254.672 25.642 249.155 33.9303C238.713 30.6832 227.984 28.4455 217.114 27.2478C215.568 17.6953 212.038 8.5723 206.753 0.466218L187.792 0C182.275 6.63065 179.271 17.535 177.639 27.4032C167.604 28.6133 157.696 30.7109 148.032 33.6713C142.819 25.4115 135.916 18.3496 127.777 12.9505L110.241 19.9438C107.78 28.258 109.36 39.499 111.769 49.2119C103.076 54.2583 94.8424 60.0564 87.1616 66.5396C79.0803 61.1068 69.946 57.4357 60.3526 55.7648L47.0388 69.1297C48.0749 77.7547 53.9806 87.4935 59.99 95.471C54.099 103.376 48.8993 111.773 44.4485 120.569C34.8831 118.713 25.0343 118.89 15.5414 121.087L8.54779 138.57C12.9512 146.133 22.1725 152.816 30.9016 157.711C28.828 166.318 27.425 175.073 26.7054 183.897C17.0966 185.79 7.99604 189.691 0 195.345L0 214.201C6.96775 219.563 18.1317 222.204 28.0264 223.5C29.2512 231.738 31.0779 239.875 33.4918 247.846C25.2248 253.105 18.163 260.051 12.7699 268.23L19.8153 285.714C28.1559 288.174 39.4235 286.542 49.1628 284.108C54.0548 292.535 59.6525 300.533 65.8957 308.014C60.3856 316.069 56.6347 325.195 54.8872 334.796L68.201 348.161C76.8006 347.177 86.5399 341.297 94.5438 335.21C101.2 340.228 108.212 344.755 115.525 348.757C113.38 358.242 113.256 368.074 115.162 377.61L132.465 385.122C140.08 381.055 146.944 372.171 152.151 363.572C160.45 365.856 168.909 367.509 177.457 368.519C178.988 378.1 182.518 387.251 187.818 395.378L206.675 395.948C212.218 389.369 215.249 378.517 217.036 368.7C225.695 367.742 234.268 366.122 242.68 363.857C247.664 372.13 254.326 379.268 262.236 384.811L279.927 378.284C282.518 370.125 281.404 359.013 279.306 349.301C285.493 345.975 291.471 342.273 297.204 338.215C304.711 344.267 313.402 348.678 322.718 351.165L337.12 338.94C336.809 330.393 331.939 320.369 326.552 311.977C332.99 304.709 338.804 296.911 343.932 288.666C353.19 291.294 362.896 291.956 372.425 290.609L380.947 273.773C377.346 266.003 368.954 258.751 360.821 253.053C363.617 244.769 365.773 236.283 367.27 227.67C376.814 226.66 386.042 223.67 394.364 218.889L395.996 200.085C394.372 198.586 392.592 197.266 390.686 196.148L335.592 196.2ZM143.914 203.53H132.465V241.682H140.236V226.504H142.463C147.644 226.504 151.037 225.701 152.824 224.121C154.611 222.541 155.414 219.433 155.414 214.823C155.732 211.702 154.801 208.582 152.824 206.146C150.334 204.174 147.18 203.238 144.017 203.53H143.914ZM146.504 219.614C145.921 220.076 145.252 220.417 144.536 220.617C143.82 220.817 143.071 220.872 142.334 220.78H140.132V209.254H142.463C143.195 209.166 143.936 209.226 144.644 209.431C145.351 209.636 146.01 209.981 146.582 210.445C147.465 211.781 147.842 213.389 147.644 214.978C147.832 216.581 147.486 218.202 146.659 219.588L146.504 219.614ZM155.026 98.8899V97.025C155.255 94.1118 154.324 91.2262 152.436 88.9958C151.3 87.9552 149.961 87.1605 148.503 86.6613C147.046 86.1621 145.501 85.9693 143.966 86.0948C142.287 85.9173 140.591 86.1029 138.991 86.6392C137.391 87.1755 135.925 88.0499 134.693 89.2029C132.905 91.275 132.102 94.8494 132.102 99.926V111.711C132.102 116.753 132.966 120.301 134.693 122.356C135.926 123.508 137.392 124.381 138.991 124.917C140.591 125.454 142.287 125.64 143.966 125.464C145.563 125.627 147.177 125.454 148.703 124.954C150.229 124.454 151.633 123.64 152.824 122.563C154.85 119.822 155.774 116.421 155.414 113.032V111.892H147.644V113.006C147.768 114.714 147.484 116.428 146.815 118.005C146.587 118.5 146.222 118.919 145.763 119.213C145.303 119.507 144.77 119.663 144.225 119.663C143.553 119.716 142.882 119.558 142.305 119.209C141.729 118.861 141.277 118.34 141.013 117.72C140.271 115.485 139.964 113.129 140.106 110.778V99.0194C139.971 97.1299 140.3 95.236 141.065 93.5025C141.38 92.9531 141.843 92.5037 142.402 92.2059C142.961 91.9081 143.593 91.774 144.225 91.819C144.735 91.7951 145.24 91.9226 145.678 92.1852C146.116 92.4479 146.466 92.8341 146.685 93.2953C147.309 94.6928 147.567 96.2257 147.436 97.7503V98.8899H155.026ZM182.016 122.512C184.061 119.583 184.981 116.014 184.606 112.462V96.6883C184.719 95.2243 184.513 93.7534 184.003 92.3764C183.494 90.9994 182.692 89.7489 181.654 88.7108C179.1 86.7877 175.93 85.8663 172.743 86.1207C169.555 85.854 166.381 86.7766 163.833 88.7108C162.794 89.7489 161.993 90.9994 161.483 92.3764C160.973 93.7534 160.768 95.2243 160.88 96.6883V112.41C160.499 115.963 161.419 119.534 163.47 122.46C164.713 123.554 166.17 124.38 167.748 124.883C169.326 125.387 170.992 125.558 172.64 125.387C174.343 125.608 176.075 125.463 177.718 124.963C179.362 124.463 180.88 123.618 182.172 122.486L182.016 122.512ZM169.635 118.186C168.914 116.487 168.612 114.639 168.754 112.799V97.025C168.667 95.6517 169.031 94.2876 169.79 93.1399C170.176 92.7208 170.645 92.3862 171.166 92.1573C171.688 91.9285 172.251 91.8103 172.821 91.8103C173.391 91.8103 173.954 91.9285 174.476 92.1573C174.997 92.3862 175.466 92.7208 175.851 93.1399C176.62 94.2836 176.984 95.6508 176.888 97.025V112.747C177.072 114.577 176.814 116.424 176.136 118.134C175.755 118.605 175.274 118.985 174.727 119.245C174.18 119.506 173.582 119.641 172.976 119.641C172.371 119.641 171.772 119.506 171.226 119.245C170.679 118.985 170.197 118.605 169.816 118.134L169.635 118.186ZM384.185 183.275V150.77H392.421V145.045H368.125V150.744H376.362V183.249L384.185 183.275ZM364.058 157.374V155.406C364.269 153.912 364.127 152.39 363.646 150.961C363.164 149.531 362.355 148.234 361.283 147.173C360.212 146.111 358.907 145.315 357.473 144.846C356.039 144.378 354.516 144.251 353.024 144.476C351.346 144.3 349.65 144.486 348.05 145.022C346.45 145.559 344.984 146.432 343.751 147.584C341.964 149.656 341.161 153.23 341.161 158.281V170.066C341.161 175.108 342.024 178.656 343.751 180.711C344.983 181.864 346.449 182.739 348.049 183.275C349.649 183.811 351.346 183.997 353.024 183.819C354.605 183.978 356.202 183.807 357.714 183.317C359.225 182.826 360.618 182.027 361.805 180.97C363.828 178.228 364.752 174.828 364.395 171.439V170.299H356.624V171.439C356.755 173.147 356.471 174.862 355.795 176.437C355.57 176.935 355.206 177.356 354.746 177.65C354.286 177.944 353.751 178.099 353.205 178.095C352.523 178.154 351.839 177.996 351.253 177.642C350.667 177.288 350.207 176.758 349.942 176.127C349.204 173.891 348.896 171.535 349.035 169.185V157.452C348.902 155.56 349.24 153.664 350.019 151.935C350.332 151.384 350.795 150.932 351.355 150.634C351.914 150.336 352.547 150.203 353.179 150.252C353.689 150.228 354.195 150.355 354.633 150.618C355.071 150.881 355.421 151.267 355.64 151.728C356.256 153.119 356.514 154.641 356.391 156.157V157.297L364.058 157.374ZM608.318 142.222C609.362 142.297 610.409 142.164 611.401 141.83C612.393 141.497 613.308 140.97 614.094 140.28C614.785 139.509 615.316 138.608 615.654 137.629C615.992 136.651 616.131 135.615 616.063 134.581H610.882C610.969 135.644 610.763 136.71 610.287 137.664C610.029 137.943 609.717 138.166 609.369 138.319C609.022 138.471 608.646 138.55 608.266 138.55C607.886 138.55 607.511 138.471 607.163 138.319C606.815 138.166 606.503 137.943 606.246 137.664C605.79 136.704 605.594 135.641 605.676 134.581H600.495C600.427 135.615 600.567 136.651 600.905 137.629C601.243 138.608 601.773 139.509 602.464 140.28C603.282 140.988 604.24 141.517 605.275 141.834C606.309 142.15 607.399 142.247 608.473 142.119L608.318 142.222ZM313.937 147.143C312.905 148.191 312.108 149.447 311.599 150.827C311.09 152.207 310.88 153.68 310.984 155.147V170.946C310.608 174.499 311.528 178.068 313.575 180.996C316.262 182.901 319.476 183.924 322.77 183.924C326.064 183.924 329.277 182.901 331.965 180.996C334.014 178.069 334.934 174.499 334.556 170.946V155.121C334.668 153.651 334.46 152.174 333.946 150.792C333.432 149.41 332.623 148.156 331.577 147.118C328.923 145.385 325.823 144.462 322.653 144.462C319.484 144.462 316.383 145.385 313.73 147.118L313.937 147.143ZM325.878 151.573C326.646 152.716 327.011 154.083 326.914 155.458V171.18C327.051 173.022 326.74 174.871 326.008 176.567C325.627 177.042 325.144 177.426 324.595 177.689C324.045 177.953 323.444 178.09 322.835 178.09C322.225 178.09 321.624 177.953 321.075 177.689C320.526 177.426 320.043 177.042 319.662 176.567C318.941 174.868 318.639 173.02 318.781 171.18V155.406C318.683 154.035 319.038 152.67 319.791 151.521C320.177 151.102 320.645 150.767 321.167 150.538C321.689 150.309 322.252 150.191 322.822 150.191C323.391 150.191 323.955 150.309 324.476 150.538C324.998 150.767 325.467 151.102 325.852 151.521L325.878 151.573ZM265.785 218.552V241.682H272.182V203.53H261.822L257.03 226.841C256.684 228.567 256.313 230.51 255.916 232.668C255.527 234.87 255.294 236.269 255.216 236.942C255.216 236.346 255.346 234.948 255.398 232.72C255.45 230.493 255.398 228.498 255.398 226.685V203.53H249.129V241.682H259.49L264.282 218.371C264.645 216.644 265.016 214.702 265.396 212.543C265.776 210.385 266.009 208.969 266.095 208.296C266.095 208.84 265.966 210.238 265.914 212.466C265.862 214.693 265.785 216.713 265.785 218.552ZM296.375 218.552V241.682H302.773V203.53H292.412L287.62 226.841C287.258 228.567 286.886 230.51 286.507 232.668C286.118 234.87 285.885 236.269 285.807 236.942C285.807 236.338 285.868 234.93 285.988 232.72C285.988 230.493 285.988 228.498 285.988 226.685V203.53H279.746V241.682H290.107L294.899 218.371C295.262 216.644 295.633 214.702 296.013 212.543C296.401 210.342 296.634 208.943 296.712 208.296C296.712 208.84 296.583 210.238 296.531 212.466C296.479 214.693 296.375 216.713 296.375 218.552ZM166.319 183.249V145.045H155.414L149.379 174.236L143.318 145.045H132.361V183.249H138.759V151.054L145.442 183.223H153.213L159.921 151.262V183.249H166.319ZM303.783 145.045H296.013V160.845H288.553V145.045H280.782V183.249H288.553V166.543H295.961V183.249H303.732L303.783 145.045ZM438.087 144.45C434.908 144.189 431.744 145.112 429.203 147.04C428.16 148.08 427.355 149.334 426.845 150.716C426.335 152.098 426.132 153.575 426.25 155.043V170.946C425.876 174.499 426.796 178.067 428.84 180.996C431.534 182.899 434.751 183.921 438.049 183.921C441.347 183.921 444.564 182.899 447.257 180.996C449.297 178.065 450.217 174.498 449.847 170.946V155.121C449.958 153.651 449.749 152.174 449.235 150.793C448.721 149.411 447.914 148.157 446.868 147.118C444.352 145.215 441.234 144.286 438.087 144.502V144.45ZM442.154 171.154C442.295 172.994 441.993 174.841 441.273 176.541C440.934 177.064 440.457 177.483 439.895 177.753C439.333 178.022 438.708 178.132 438.087 178.069C437.471 178.133 436.849 178.023 436.29 177.753C435.732 177.484 435.26 177.064 434.927 176.541C434.205 174.842 433.903 172.994 434.047 171.154V155.406C433.952 154.035 434.307 152.672 435.057 151.521C435.443 151.102 435.911 150.767 436.433 150.538C436.954 150.309 437.518 150.191 438.087 150.191C438.657 150.191 439.22 150.309 439.742 150.538C440.264 150.767 440.732 151.102 441.118 151.521C441.884 152.665 442.249 154.032 442.154 155.406V171.154ZM485.592 150.744H493.829V183.249H501.6V150.77H509.837V145.045H485.541L485.592 150.744ZM465.13 168.356C464.767 170.083 464.396 172.026 464.016 174.184C463.627 176.386 463.394 177.784 463.342 178.432C463.342 177.836 463.472 176.437 463.524 174.21C463.575 171.982 463.524 169.988 463.524 168.175V145.045H457.177V183.249H467.538L472.33 159.939C472.693 158.212 473.064 156.269 473.444 154.111C473.824 151.952 474.057 150.536 474.144 149.863C474.144 150.433 474.014 151.806 473.962 154.033C473.91 156.261 473.962 158.281 473.962 160.12V183.249H480.36V145.045H469.999L465.13 168.356ZM523.047 166.517H533.9V160.845H523.047V150.77H534.237V145.045H515.225V183.249H534.47V177.551H523.021L523.047 166.517ZM409.258 145.045H397.706V183.249H405.476V168.071H407.678C412.858 168.071 416.312 167.268 418.039 165.663C419.766 164.057 420.629 160.957 420.629 156.364C420.95 153.243 420.018 150.122 418.039 147.687C415.56 145.711 412.416 144.764 409.258 145.045ZM411.848 161.13C411.265 161.592 410.596 161.932 409.88 162.133C409.164 162.333 408.416 162.388 407.678 162.296H405.476V150.821H407.678C408.409 150.735 409.15 150.796 409.858 151.001C410.565 151.205 411.224 151.549 411.796 152.013C412.665 153.327 413.05 154.902 412.884 156.468C413.069 158.102 412.705 159.752 411.848 161.156V161.13ZM609.691 145.045L604.899 168.356C604.536 170.083 604.165 172.026 603.785 174.184C603.405 176.342 603.172 177.758 603.086 178.432C603.086 177.845 603.155 176.437 603.293 174.21C603.293 172.008 603.293 169.988 603.293 168.175V145.045H596.895V183.249H607.256L612.048 159.939C612.411 158.212 612.782 156.269 613.162 154.111C613.55 151.935 613.783 150.511 613.861 149.863C613.861 150.433 613.732 151.806 613.68 154.033C613.628 156.261 613.68 158.281 613.68 160.12V183.249H620.078V145.045H609.691ZM542.008 173.537C542.086 174.524 541.879 175.512 541.412 176.386C541.194 176.683 540.903 176.92 540.568 177.074C540.232 177.228 539.863 177.294 539.495 177.266H538.77V183.897H540.117C541.457 184.019 542.807 183.866 544.086 183.448C545.364 183.029 546.543 182.353 547.551 181.462C549.25 179.245 550.062 176.475 549.83 173.692V150.77H556.047V183.249H563.818V145.045H541.956L542.008 173.537ZM579.152 166.517H590.005V160.845H579.152V150.77H590.342V145.045H571.329V183.249H590.575V177.551H579.152V166.517ZM190.978 183.249H198.516L189.891 145.045H180.695L172.044 183.249H179.581L181.136 175.013H189.476L190.978 183.249ZM182.172 169.315L185.332 152.22L188.414 169.315H182.172ZM203.282 242.278C204.863 242.437 206.46 242.266 207.972 241.775C209.483 241.285 210.876 240.486 212.063 239.429C214.081 236.684 215.005 233.286 214.653 229.897V228.757H206.883V229.871C207.003 231.571 206.719 233.275 206.054 234.844C205.826 235.339 205.461 235.759 205.001 236.052C204.542 236.346 204.009 236.502 203.463 236.502C202.793 236.552 202.123 236.392 201.547 236.043C200.972 235.695 200.519 235.177 200.252 234.559C199.51 232.324 199.202 229.968 199.345 227.618V215.859C199.21 213.969 199.539 212.075 200.303 210.342C200.618 209.792 201.082 209.343 201.641 209.045C202.2 208.747 202.832 208.613 203.463 208.658C203.973 208.634 204.479 208.762 204.917 209.025C205.355 209.287 205.705 209.673 205.924 210.135C206.54 211.525 206.798 213.048 206.675 214.564V215.703H214.446V213.838C214.662 212.344 214.525 210.819 214.045 209.387C213.565 207.955 212.756 206.656 211.683 205.593C210.61 204.53 209.303 203.734 207.867 203.267C206.43 202.801 204.904 202.678 203.412 202.908C201.733 202.731 200.037 202.916 198.437 203.453C196.837 203.989 195.371 204.863 194.139 206.016C192.412 208.088 191.548 211.654 191.548 216.713V228.498C191.548 233.54 192.412 237.089 194.139 239.144C195.354 240.284 196.797 241.153 198.373 241.694C199.95 242.234 201.623 242.433 203.282 242.278ZM191.678 86.6647V124.817H199.449V108.111H205.069V112.436C204.795 115.942 205.86 119.422 208.048 122.175C210.547 124.266 213.701 125.411 216.959 125.411C220.216 125.411 223.371 124.266 225.869 122.175C228.053 119.42 229.117 115.942 228.848 112.436V96.6883C228.955 95.2226 228.744 93.7509 228.23 92.3741C227.716 90.9972 226.911 89.7476 225.869 88.7108C223.219 86.9801 220.123 86.0585 216.959 86.0585C213.794 86.0585 210.698 86.9801 208.048 88.7108C207.004 89.7456 206.196 90.9949 205.682 92.3722C205.168 93.7496 204.959 95.2223 205.069 96.6883V102.412H199.449V86.6647H191.678ZM212.944 97.025C212.808 95.611 213.116 94.1897 213.824 92.9586C214.221 92.5355 214.711 92.21 215.255 92.0078C215.798 91.8056 216.382 91.7321 216.959 91.7931C217.544 91.7279 218.136 91.7992 218.689 92.0014C219.241 92.2036 219.74 92.5313 220.145 92.9586C220.852 94.1903 221.16 95.6111 221.025 97.025V112.747C221.176 114.585 220.882 116.433 220.17 118.134C219.789 118.605 219.308 118.985 218.761 119.245C218.214 119.506 217.616 119.641 217.01 119.641C216.405 119.641 215.807 119.506 215.26 119.245C214.713 118.985 214.232 118.605 213.85 118.134C213.128 116.436 212.825 114.587 212.97 112.747L212.944 97.025ZM172.95 242.278C174.606 242.452 176.28 242.282 177.867 241.779C179.454 241.275 180.92 240.448 182.172 239.351C184.216 236.422 185.136 232.854 184.762 229.301V213.579C184.876 212.115 184.671 210.644 184.161 209.267C183.651 207.889 182.849 206.639 181.809 205.602C179.261 203.668 176.087 202.745 172.899 203.012C169.71 202.745 166.536 203.668 163.988 205.602C162.95 206.64 162.148 207.89 161.638 209.267C161.129 210.644 160.923 212.115 161.035 213.579V229.301C160.654 232.854 161.574 236.425 163.626 239.351C164.886 240.467 166.369 241.305 167.976 241.81C169.582 242.314 171.278 242.473 172.95 242.278ZM168.91 213.787C168.823 212.413 169.187 211.049 169.946 209.902C170.331 209.482 170.8 209.148 171.322 208.919C171.843 208.69 172.407 208.572 172.976 208.572C173.546 208.572 174.109 208.69 174.631 208.919C175.153 209.148 175.621 209.482 176.007 209.902C176.775 211.045 177.14 212.412 177.043 213.787V229.509C177.197 231.386 176.886 233.272 176.136 235C175.755 235.47 175.274 235.85 174.727 236.11C174.18 236.371 173.582 236.507 172.976 236.507C172.371 236.507 171.772 236.371 171.226 236.11C170.679 235.85 170.197 235.47 169.816 235C169.093 233.301 168.791 231.453 168.936 229.612L168.91 213.787ZM231.827 242.278C233.408 242.437 235.005 242.266 236.516 241.775C238.028 241.285 239.421 240.486 240.607 239.429C242.63 236.686 243.554 233.286 243.198 229.897V228.757H235.427V229.871C235.556 231.569 235.281 233.273 234.624 234.844C234.396 235.339 234.031 235.759 233.572 236.052C233.113 236.346 232.579 236.502 232.034 236.502C231.363 236.552 230.693 236.392 230.118 236.043C229.542 235.695 229.089 235.177 228.822 234.559C228.082 232.324 227.775 229.968 227.915 227.618V215.859C227.791 213.967 228.129 212.074 228.9 210.342C229.215 209.792 229.678 209.343 230.237 209.045C230.796 208.747 231.428 208.613 232.06 208.658C232.57 208.634 233.075 208.762 233.513 209.025C233.951 209.287 234.301 209.673 234.52 210.135C235.133 211.526 235.391 213.048 235.272 214.564V215.703H243.042V213.838C243.274 210.925 242.343 208.038 240.452 205.809C239.316 204.769 237.977 203.974 236.52 203.475C235.062 202.976 233.517 202.783 231.982 202.908C230.304 202.731 228.607 202.916 227.007 203.453C225.407 203.989 223.941 204.863 222.709 206.016C220.982 208.088 220.119 211.654 220.119 216.713V228.498C220.119 233.54 220.982 237.089 222.709 239.144C223.921 240.281 225.36 241.148 226.932 241.688C228.503 242.228 230.172 242.429 231.827 242.278ZM242.576 145.045H234.805V177.551H227.345V145.045H219.575V177.551H212.115V145.045H204.344V183.249H242.576V145.045ZM256.149 122.9C257.181 121.812 257.97 120.518 258.466 119.103C258.961 117.688 259.152 116.183 259.024 114.69V113.628C259.175 112.274 259.021 110.903 258.573 109.617C258.124 108.33 257.394 107.161 256.434 106.194C255.788 105.715 255.071 105.339 254.31 105.08C255.131 104.833 255.896 104.428 256.563 103.889C258.152 102.507 258.946 99.8569 258.946 95.9372V94.9789C259.048 93.7214 258.841 92.4582 258.345 91.2985C257.848 90.1387 257.077 89.1172 256.097 88.3223C253.474 86.6863 250.4 85.9246 247.316 86.1466C245.701 85.99 244.071 86.1592 242.523 86.6442C240.974 87.1292 239.539 87.92 238.302 88.9698C237.286 90.1693 236.531 91.5671 236.085 93.0744C235.639 94.5816 235.512 96.1653 235.712 97.7244V98.864H243.483V97.7244C243.336 96.177 243.642 94.6204 244.363 93.2435C244.663 92.7654 245.086 92.3764 245.587 92.1168C246.088 91.8571 246.649 91.7364 247.213 91.7672C247.754 91.7147 248.301 91.775 248.818 91.9444C249.335 92.1138 249.812 92.3886 250.217 92.7514C250.896 93.7457 251.208 94.9454 251.098 96.1444V97.1028C251.241 98.4717 250.97 99.8519 250.321 101.066C249.909 101.451 249.416 101.74 248.878 101.91C248.34 102.08 247.771 102.128 247.213 102.05H243.327V107.8H246.85C247.454 107.728 248.067 107.786 248.648 107.969C249.228 108.152 249.763 108.457 250.217 108.862C250.935 110.051 251.244 111.443 251.098 112.825V113.964C251.244 115.518 250.919 117.079 250.165 118.445C249.75 118.897 249.232 119.244 248.655 119.455C248.078 119.667 247.46 119.738 246.85 119.663C246.222 119.701 245.596 119.567 245.039 119.275C244.481 118.982 244.015 118.543 243.69 118.005C242.907 116.461 242.566 114.731 242.706 113.006V111.892H234.935V113.032C234.522 116.425 235.452 119.846 237.525 122.563C238.819 123.632 240.311 124.433 241.916 124.922C243.521 125.411 245.206 125.578 246.876 125.413C250.165 125.722 253.456 124.84 256.149 122.926V122.9ZM273.193 145.045H262.832L258.04 168.356C257.677 170.083 257.306 172.026 256.926 174.184C256.537 176.386 256.304 177.784 256.227 178.432C256.227 177.836 256.356 176.437 256.408 174.21C256.46 171.982 256.408 169.988 256.408 168.175V145.045H250.14V183.249H260.501L265.292 159.939C265.655 158.212 266.035 156.269 266.432 154.111C266.829 151.952 267.054 150.536 267.106 149.863C267.106 150.433 266.976 151.806 266.924 154.033C266.872 156.261 266.924 158.281 266.924 160.12V183.249H273.322L273.193 145.045Z" fill="#005CA8"/>
<defs>
<linearGradient id="paint0_linear_495_3" x1="59.1528" y1="282.303" x2="217.261" y2="282.303" gradientUnits="userSpaceOnUse">
<stop stop-color="#B01116"/>
<stop offset="0.65" stop-color="#ED1C24"/>
<stop offset="1" stop-color="#ED1C24"/>
</linearGradient>
<linearGradient id="paint1_linear_495_3" x1="161.696" y1="301.163" x2="329.57" y2="301.163" gradientUnits="userSpaceOnUse">
<stop stop-color="#B01116"/>
<stop offset="0.65" stop-color="#ED1C24"/>
<stop offset="1" stop-color="#ED1C24"/>
</linearGradient>
<linearGradient id="paint2_linear_495_3" x1="59.1528" y1="259.432" x2="217.261" y2="259.432" gradientUnits="userSpaceOnUse">
<stop stop-color="#BCBDC0"/>
<stop offset="0.65" stop-color="white"/>
<stop offset="1" stop-color="white"/>
</linearGradient>
<linearGradient id="paint3_linear_495_3" x1="180.401" y1="283.936" x2="328.485" y2="283.936" gradientUnits="userSpaceOnUse">
<stop stop-color="#BCBDC0"/>
<stop offset="0.65" stop-color="white"/>
<stop offset="1" stop-color="white"/>
</linearGradient>
<linearGradient id="paint4_linear_495_3" x1="76.5002" y1="291.764" x2="207.178" y2="291.764" gradientUnits="userSpaceOnUse">
<stop stop-color="#00377B"/>
<stop offset="0.01" stop-color="#00377B"/>
<stop offset="0.52" stop-color="#034EA2"/>
<stop offset="1" stop-color="#034EA2"/>
</linearGradient>
<linearGradient id="paint5_linear_495_3" x1="177.239" y1="298.494" x2="315.635" y2="298.494" gradientUnits="userSpaceOnUse">
<stop stop-color="#00377B"/>
<stop offset="0.01" stop-color="#00377B"/>
<stop offset="0.52" stop-color="#034EA2"/>
<stop offset="1" stop-color="#034EA2"/>
</linearGradient>
</defs>
</svg>
