<svg width="33" height="32" viewBox="0 0 33 32" fill="none" xmlns="http://www.w3.org/2000/svg">
<mask id="mask0_8_86" style="mask-type:alpha" maskUnits="userSpaceOnUse" x="0" y="0" width="33" height="32">
<rect x="0.5" width="32" height="32" fill="#D9D9D9"/>
</mask>
<g mask="url(#mask0_8_86)">
<path d="M15.5 18.3334H17.5V14.3334H21.5V12.3334H17.5V8.33342H15.5V12.3334H11.5V14.3334H15.5V18.3334ZM16.5 26.7001C19.4555 24.0112 21.6389 21.5723 23.05 19.3834C24.4611 17.1945 25.1666 15.2667 25.1666 13.6001C25.1666 10.9825 24.3301 8.83919 22.657 7.17008C20.9839 5.50119 18.9315 4.66675 16.5 4.66675C14.0684 4.66675 12.0161 5.50119 10.343 7.17008C8.66987 8.83919 7.83331 10.9825 7.83331 13.6001C7.83331 15.2667 8.55554 17.1945 9.99998 19.3834C11.4444 21.5723 13.6111 24.0112 16.5 26.7001ZM16.5 29.3334C12.9222 26.289 10.25 23.4612 8.48331 20.8501C6.71665 18.239 5.83331 15.8223 5.83331 13.6001C5.83331 10.2667 6.90554 7.61119 9.04998 5.63342C11.1944 3.65564 13.6778 2.66675 16.5 2.66675C19.3222 2.66675 21.8055 3.65564 23.95 5.63342C26.0944 7.61119 27.1666 10.2667 27.1666 13.6001C27.1666 15.8223 26.2833 18.239 24.5166 20.8501C22.75 23.4612 20.0778 26.289 16.5 29.3334Z" fill="white"/>
</g>
</svg>
