<svg width="33" height="32" viewBox="0 0 33 32" fill="none" xmlns="http://www.w3.org/2000/svg">
<mask id="mask0_8_71" style="mask-type:alpha" maskUnits="userSpaceOnUse" x="0" y="0" width="33" height="32">
<rect x="0.5" width="32" height="32" fill="#D9D9D9"/>
</mask>
<g mask="url(#mask0_8_71)">
<path d="M27 28C24.4222 28 21.7944 27.3778 19.1167 26.1333C16.4389 24.8889 13.9556 23.1222 11.6667 20.8333C9.37778 18.5444 7.61111 16.0611 6.36667 13.3833C5.12222 10.7056 4.5 8.07778 4.5 5.5C4.5 5.07133 4.64289 4.71422 4.92867 4.42867C5.21422 4.14289 5.57133 4 6 4H10.6667C10.9778 4 11.2444 4.11111 11.4667 4.33333C11.6889 4.55556 11.8444 4.83333 11.9333 5.16667L12.831 9.35467C12.877 9.67378 12.8722 9.96111 12.8167 10.2167C12.7611 10.4722 12.6419 10.6914 12.459 10.8743L9.13333 14.2333C9.71111 15.2111 10.3222 16.1222 10.9667 16.9667C11.6111 17.8111 12.3222 18.6111 13.1 19.3667C13.9222 20.2111 14.7889 20.9833 15.7 21.6833C16.6111 22.3833 17.5667 23 18.5667 23.5333L21.7333 20.2667C21.9556 20.0222 22.2128 19.8556 22.505 19.7667C22.7972 19.6778 23.0844 19.6556 23.3667 19.7L27.3333 20.5667C27.6667 20.6556 27.9444 20.8338 28.1667 21.1013C28.3889 21.3691 28.5 21.6687 28.5 22V26.5C28.5 26.9287 28.3571 27.2858 28.0713 27.5713C27.7858 27.8571 27.4287 28 27 28ZM8.13333 12.4L10.8333 9.66667L10.0667 6H6.5C6.54444 6.93333 6.69444 7.91667 6.95 8.95C7.20556 9.98333 7.6 11.1333 8.13333 12.4ZM20.4333 24.5C21.3444 24.9222 22.3333 25.2667 23.4 25.5333C24.4667 25.8 25.5 25.9556 26.5 26V22.4333L23.0667 21.7333L20.4333 24.5Z" fill="white"/>
</g>
</svg>
