<svg width="337" height="238" viewBox="0 0 337 238" fill="none" xmlns="http://www.w3.org/2000/svg">
<rect y="187" width="33" height="27" fill="#293081"/>
<rect x="29" y="204" width="50" height="10" fill="#293081"/>
<rect x="113" y="187" width="109" height="10" fill="#293081"/>
<rect x="228" y="187" width="109" height="10" fill="#293081"/>
<rect x="228" y="228" width="109" height="10" fill="#293081"/>
<rect x="75" y="187" width="33" height="51" fill="#293081"/>
<rect x="151" y="187" width="33" height="51" fill="#293081"/>
<path d="M304 187L337 197L301 212.5L337 228L304 238L255 212.5L304 187Z" fill="#293081"/>
<path d="M157 167H79V89H157V167ZM101 109V147H136V109H101Z" fill="#293081"/>
<path d="M255 167H177V89H255V167ZM199 109V147H234V109H199Z" fill="#293081"/>
<rect x="157" y="89" width="22" height="20" fill="#293081"/>
<rect x="129" y="49" width="22" height="20" fill="#293081"/>
<rect x="186" y="49" width="22" height="20" fill="#293081"/>
<rect x="135" y="49" width="22" height="45" fill="#293081"/>
<rect x="111" width="22" height="69" fill="#293081"/>
<rect x="122" width="100" height="22" fill="#293081"/>
<rect x="177" y="49" width="22" height="45" fill="#293081"/>
<rect x="201" width="22" height="69" fill="#293081"/>
</svg>
