<svg width="401" height="79" viewBox="0 0 401 79" fill="none" xmlns="http://www.w3.org/2000/svg">
<g clip-path="url(#clip0_211_424)">
<path d="M94.7363 32H142.236L137.236 48H94.7363V32Z" fill="#F3B411"/>
<path d="M144.736 79H105.736L111.096 63H144.736V79Z" fill="#F3B411"/>
<path d="M251.736 79H237.736L243.096 63H251.736V79Z" fill="#F3B411"/>
<path d="M317.736 16H291.736L297.096 0H317.736V16Z" fill="#F3B411"/>
<path d="M309.736 16H335.736L330.377 0H309.736V16Z" fill="#F3B411"/>
<path d="M301.736 58H277.736L283.096 42H301.736V58Z" fill="#F3B411"/>
<path d="M290.736 42H327.236L309.377 58H290.736V42Z" fill="#F3B411"/>
<path d="M272.736 16H258.736L264.096 0H272.736V16Z" fill="#F3B411"/>
<path d="M262.736 63H276.736L271.377 79H262.736V63Z" fill="#F3B411"/>
<path d="M165.736 16H126.736L132.096 0H165.736V16Z" fill="#F3B411"/>
<path d="M29.7363 16L3.73621 16L8.99545 -1.71661e-05H29.7363V16Z" fill="#F3B411"/>
<path d="M23.7363 43L0.00585938 43L5.2651 59H23.7363V43Z" fill="#F3B411"/>
<path d="M20.7363 43L44.7364 43L39.4772 59H20.7363V43Z" fill="#F3B411"/>
<path d="M78.7363 16L52.7362 16L57.9955 -1.71661e-05H78.7363V16Z" fill="#F3B411"/>
<path d="M145.236 79H111.736V63H125.236L127.569 56H152.736L145.236 79Z" fill="#F3B411"/>
<path d="M164.236 23H140.236L142.497 16H132.736V0H171.736L164.236 23Z" fill="#F3B411"/>
<path d="M63.1484 79H36.8311L62.8193 0H89.1367L63.1484 79Z" fill="#F3B411"/>
<path d="M21.0537 59H5.25977L0.000976562 43H0L14.1455 0H40.4629L21.0537 59Z" fill="#F3B411"/>
<path d="M205.963 79H179.645L198.725 21H225.042L205.963 79Z" fill="#F3B411"/>
<path d="M189.055 23H171.736L179.303 0H196.621L189.055 23Z" fill="#F3B411"/>
<path d="M250.055 23H232.736L240.303 0H257.621L250.055 23Z" fill="#F3B411"/>
<path d="M102.055 79H75.7363L101.725 0H128.042L102.055 79Z" fill="#F3B411"/>
<path d="M268.055 79H241.736L267.725 0H294.042L268.055 79Z" fill="#F3B411"/>
<path d="M396.866 0H372.736L376.122 79H400.251L396.866 0Z" fill="#F3B411"/>
<path d="M311.225 16H335.779L327.227 42H300.908L311.225 10.6396V16Z" fill="#F3B411"/>
<rect x="187.736" width="55" height="18" fill="#F3B411"/>
<path d="M335.139 79H310.736L321.223 64H345.625L335.139 79Z" fill="#F3B411"/>
<path d="M373.139 71H348.736L359.223 56H383.625L373.139 71Z" fill="#F3B411"/>
<rect x="369.736" y="59" width="19" height="12" fill="#F3B411"/>
<path d="M370.586 19.8467L371.168 33.4199L339.304 79H314.901L360.96 13.1162L370.586 19.8467Z" fill="#F3B411"/>
<path d="M370.422 16H353.736L362.824 3H369.865L370.422 16Z" fill="#F3B411"/>
<path d="M370.851 26H361.736V12H370.251L370.851 26Z" fill="#F3B411"/>
</g>
<defs>
<clipPath id="clip0_211_424">
<rect width="400.251" height="79" fill="white"/>
</clipPath>
</defs>
</svg>
