<svg width="1039" height="256" viewBox="0 0 1039 256" fill="none" xmlns="http://www.w3.org/2000/svg">
<rect x="478" y="86" width="25" height="93" fill="black"/>
<path d="M405 87L430 64V179H405V87Z" fill="black"/>
<path d="M333 64H358V153L333 179V64Z" fill="black"/>
<rect x="991" y="122" width="25" height="57" fill="black"/>
<rect x="967.561" y="124.998" width="25" height="71.1788" transform="rotate(-89.9096 967.561 124.998)" fill="black"/>
<rect x="535" y="64" width="26" height="86" transform="rotate(90 535 64)" fill="black"/>
<rect x="601" y="112" width="26" height="63" transform="rotate(90 601 112)" fill="black"/>
<rect x="886" y="61" width="25" height="157" fill="black"/>
<path d="M672.289 60.7529C700.607 60.7529 724.271 80.6838 730.017 107.283H700.582C696.119 94.7034 685.133 85.8076 672.289 85.8076C655.487 85.808 641.865 101.032 641.865 119.812C641.865 138.591 655.487 153.815 672.289 153.815C685.134 153.815 696.119 144.919 700.582 132.339H730.017C724.271 158.939 700.608 178.871 672.289 178.871C639.672 178.871 613.231 152.429 613.23 119.812C613.231 87.1945 639.672 60.7532 672.289 60.7529Z" fill="black"/>
<path d="M430 91.1162L342.116 179H333V152.761L421.762 64H430V91.1162Z" fill="black"/>
<path d="M780.5 96C803.42 96 822 114.58 822 137.5C822 160.42 803.42 179 780.5 179C757.58 179 739 160.42 739 137.5C739 114.58 757.58 96 780.5 96ZM781 120C772.716 120 766 127.835 766 137.5C766 147.165 772.716 155 781 155C789.284 155 796 147.165 796 137.5C796 127.835 789.284 120 781 120Z" fill="black"/>
<path d="M867.5 97C886.554 97 902 115.356 902 138C902 160.644 886.554 179 867.5 179C848.446 179 833 160.644 833 138C833 115.356 848.446 97 867.5 97ZM876 119C867.163 119 860 127.73 860 138.5C860 149.27 867.163 158 876 158C884.837 158 892 149.27 892 138.5C892 127.73 884.837 119 876 119Z" fill="black"/>
<path d="M926.5 97C907.446 97 892 115.356 892 138C892 160.644 907.446 179 926.5 179C945.554 179 961 160.644 961 138C961 115.356 945.554 97 926.5 97ZM918 119C926.837 119 934 127.73 934 138.5C934 149.27 926.837 158 918 158C909.163 158 902 149.27 902 138.5C902 127.73 909.163 119 918 119Z" fill="black"/>
<path d="M24.9443 143C32.3136 201.087 81.9118 246 142 246C195.715 246 241.045 210.109 255.321 161H265.704C251.15 215.699 201.282 256 142 256C76.382 256 22.2977 206.624 14.8711 143H24.9443ZM142 0C207.961 0 262.267 49.8939 269.24 114H259.176C252.252 55.4294 202.432 10 142 10C87.5583 10 41.7278 46.8686 28.1143 97H17.7812C31.6399 41.2862 81.9977 0 142 0Z" fill="#972222"/>
<path d="M20.5 113L38.2535 143.75H2.74648L20.5 113Z" fill="#972222"/>
<path d="M264.5 144L246.746 113.25L282.254 113.25L264.5 144Z" fill="#972222"/>
<path d="M148.043 64C181.732 64 209.043 91.3106 209.043 125C209.043 158.689 181.732 186 148.043 186V153C166.268 153 181.043 140.464 181.043 125C181.043 109.536 166.268 97 148.043 97V64Z" fill="#972222"/>
<rect x="169.043" y="159.641" width="40" height="40" transform="rotate(-60 169.043 159.641)" fill="#972222"/>
<rect x="189.043" y="127.641" width="40" height="40" transform="rotate(-120 189.043 127.641)" fill="#972222"/>
<path d="M174.043 197H148.043V157H174.043V197Z" fill="#972222"/>
<path d="M174.043 93H148.043V53H174.043V93Z" fill="#972222"/>
<path d="M107.543 53C116.845 53.0001 125.559 56.5862 133.043 62.8408V128H113.996C113.491 122.394 108.781 118 103.043 118C98.1958 118 94.0812 121.135 92.6162 125.488C89.8739 125.412 74.5296 125 64.543 125C60.043 125 57.043 89.5 73.543 89.5C82.7974 89.5002 80.1895 100.409 98.8066 100.973C100.767 103.997 104.17 106 108.043 106C114.118 106 119.043 101.075 119.043 95C119.043 88.9249 114.118 84.0001 108.043 84C104.483 84 101.32 85.6921 99.3096 88.3145C97.1763 90.6198 94.4795 91.9999 91.543 92C84.6394 92 79.043 84.3888 79.043 75C79.043 69.0459 81.2928 63.806 84.7002 60.7695C91.5597 55.8008 99.322 53 107.543 53Z" fill="#972222"/>
<path d="M107.543 203C116.845 203 125.559 199.414 133.043 193.159V128H113.996C113.491 133.606 108.781 138 103.043 138C98.1958 138 94.0812 134.865 92.6162 130.512C89.8739 130.588 74.5296 131 64.543 131C60.043 131 57.043 166.5 73.543 166.5C82.7974 166.5 80.1895 155.591 98.8066 155.027C100.767 152.003 104.17 150 108.043 150C114.118 150 119.043 154.925 119.043 161C119.043 167.075 114.118 172 108.043 172C104.483 172 101.32 170.308 99.3096 167.686C97.1763 165.38 94.4795 164 91.543 164C84.6394 164 79.043 171.611 79.043 181C79.043 186.954 81.2928 192.194 84.7002 195.23C91.5597 200.199 99.322 203 107.543 203Z" fill="#972222"/>
<circle cx="104.043" cy="128" r="4" fill="#972222"/>
<circle cx="109.043" cy="95" r="4" fill="#972222"/>
<circle cx="109.043" cy="161" r="4" fill="#972222"/>
</svg>
