<svg width="318" height="102" viewBox="0 0 318 102" fill="none" xmlns="http://www.w3.org/2000/svg">
<rect width="318" height="69" fill="#9D0706"/>
<path d="M183.915 2.82031C195.98 2.82038 206.395 9.88524 211.249 20.1035H193.024C190.448 18.2894 187.306 17.2237 183.915 17.2236C175.165 17.2236 168.071 24.3165 168.071 33.0664C168.071 41.8162 175.165 48.9092 183.915 48.9092C192.665 48.909 199.758 41.8161 199.758 33.0664C199.758 30.527 199.16 28.1274 198.098 26H213.329C213.872 28.267 214.161 30.6331 214.161 33.0664C214.161 49.7706 200.619 63.3124 183.915 63.3125C167.211 63.3125 153.669 49.7707 153.669 33.0664C153.669 16.362 167.211 2.82031 183.915 2.82031Z" fill="white"/>
<path d="M114.781 63.3125C102.716 63.3125 92.3017 56.2467 87.4473 46.0283H105.67C108.247 47.8432 111.39 48.9102 114.781 48.9102C123.531 48.9099 130.624 41.816 130.624 33.0664C130.624 24.3167 123.531 17.2238 114.781 17.2236C106.031 17.2236 98.9376 24.3166 98.9375 33.0664C98.9376 35.5531 99.5111 37.9057 100.532 40H85.335C84.8127 37.7734 84.5352 35.4523 84.5352 33.0664C84.5352 16.362 98.0769 2.82035 114.781 2.82031C131.486 2.82044 145.027 16.3621 145.027 33.0664C145.027 49.7706 131.485 63.3124 114.781 63.3125Z" fill="white"/>
<rect x="87" y="26" width="124" height="14" fill="white"/>
<path d="M74.5 80C80.299 80 85 84.9249 85 91C85 97.0751 80.299 102 74.5 102C68.701 102 64 97.0751 64 91C64 84.9249 68.701 80 74.5 80ZM74.5 85C71.4624 85 69 87.6863 69 91C69 94.3137 71.4624 97 74.5 97C77.5376 97 80 94.3137 80 91C80 87.6863 77.5376 85 74.5 85Z" fill="#6B6B6B"/>
<path d="M96.5 80C102.299 80 107 84.9249 107 91C107 97.0751 102.299 102 96.5 102C90.701 102 86 97.0751 86 91C86 84.9249 90.701 80 96.5 80ZM96.5 85C93.4624 85 91 87.6863 91 91C91 94.3137 93.4624 97 96.5 97C99.5376 97 102 94.3137 102 91C102 87.6863 99.5376 85 96.5 85Z" fill="#6B6B6B"/>
<path d="M118.5 80C124.299 80 129 84.9249 129 91C129 97.0751 124.299 102 118.5 102C112.701 102 108 97.0751 108 91C108 84.9249 112.701 80 118.5 80ZM118.5 85C115.462 85 113 87.6863 113 91C113 94.3137 115.462 97 118.5 97C121.538 97 124 94.3137 124 91C124 87.6863 121.538 85 118.5 85Z" fill="#6B6B6B"/>
<rect x="136" y="81" width="3" height="8" fill="#6B6B6B"/>
<rect x="251" y="81" width="3" height="8" fill="#6B6B6B"/>
<rect x="141" y="81" width="3" height="8" fill="#6B6B6B"/>
<rect x="256" y="81" width="3" height="8" fill="#6B6B6B"/>
<rect x="147" y="80" width="6" height="22" fill="#6B6B6B"/>
<rect x="192" y="80" width="6" height="22" fill="#6B6B6B"/>
<rect x="214" y="98" width="5" height="12" transform="rotate(-90 214 98)" fill="#6B6B6B"/>
<rect x="173.5" y="98" width="5" height="12" transform="rotate(-90 173.5 98)" fill="#6B6B6B"/>
<path d="M216 80H222L215.5 102H209.5L216 80Z" fill="#6B6B6B"/>
<path d="M175.5 80H181.5L175 102H169L175.5 80Z" fill="#6B6B6B"/>
<path d="M224 80H218L224.5 102H230.5L224 80Z" fill="#6B6B6B"/>
<path d="M183.5 80H177.5L184 102H190L183.5 80Z" fill="#6B6B6B"/>
<rect x="148" y="93" width="4" height="10" transform="rotate(-90 148 93)" fill="#6B6B6B"/>
<path d="M240.5 80C244.642 80 248 82.9101 248 86.5C248 90.0899 244.642 93 240.5 93C239.623 93 238.782 92.8676 238 92.6279V89H240.5C241.881 89 243 88.1046 243 87C243 85.8954 241.881 85 240.5 85C239.119 85 238 85.8954 238 87H233.024C233.01 86.8349 233 86.6683 233 86.5C233 82.9101 236.358 80 240.5 80Z" fill="#6B6B6B"/>
<path d="M240.5 102C244.642 102 248 99.0899 248 95.5C248 91.9101 244.642 89 240.5 89C239.623 89 238.782 89.1324 238 89.3721V93H240.5C241.881 93 243 93.8954 243 95C243 96.1046 241.881 97 240.5 97C239.119 97 238 96.1046 238 95H233.024C233.01 95.1651 233 95.3317 233 95.5C233 99.0899 236.358 102 240.5 102Z" fill="#6B6B6B"/>
<path d="M200.5 89C204.642 89 208 91.9101 208 95.5C208 99.0899 204.642 102 200.5 102C196.358 102 193 99.0899 193 95.5C193 95.3317 193.01 95.1651 193.024 95H195V97H200.5C201.881 97 203 96.1046 203 95C203 93.8954 201.881 93 200.5 93H198V89.3721C198.782 89.1324 199.623 89 200.5 89Z" fill="#6B6B6B"/>
<path d="M200.5 80C204.642 80 208 82.9101 208 86.5C208 90.0899 204.642 93 200.5 93C199.623 93 198.782 92.8676 198 92.6279V89H200.5C201.881 89 203 88.1046 203 87C203 85.8954 201.881 85 200.5 85H197V87H193.024C193.01 86.8349 193 86.6683 193 86.5C193 82.9101 196.358 80 200.5 80Z" fill="#6B6B6B"/>
<rect x="196" y="100" width="4" height="2" fill="#6B6B6B"/>
<rect x="196" y="80" width="5" height="2" fill="#6B6B6B"/>
<rect x="150" y="89" width="9" height="4" fill="#6B6B6B"/>
<path d="M162 80H168L159 91H153L162 80Z" fill="#6B6B6B"/>
<path d="M159 91H153L161 102H167L159 91Z" fill="#6B6B6B"/>
</svg>
