<svg width="31" height="30" viewBox="0 0 31 30" fill="none" xmlns="http://www.w3.org/2000/svg">
<mask id="mask0_27_140" style="mask-type:alpha" maskUnits="userSpaceOnUse" x="0" y="0" width="31" height="30">
<rect x="0.5" width="30" height="30" fill="#D9D9D9"/>
</mask>
<g mask="url(#mask0_27_140)">
<path d="M4.875 25C4.375 25 3.9375 24.8125 3.5625 24.4375C3.1875 24.0625 3 23.625 3 23.125V6.875C3 6.375 3.1875 5.9375 3.5625 5.5625C3.9375 5.1875 4.375 5 4.875 5H26.125C26.625 5 27.0625 5.1875 27.4375 5.5625C27.8125 5.9375 28 6.375 28 6.875V23.125C28 23.625 27.8125 24.0625 27.4375 24.4375C27.0625 24.8125 26.625 25 26.125 25H4.875ZM15.5 15.5625L4.875 8.59375V23.125H26.125V8.59375L15.5 15.5625ZM15.5 13.6875L26 6.875H5.03125L15.5 13.6875ZM4.875 8.59375V6.875V23.125V8.59375Z" fill="white"/>
</g>
</svg>
