<svg width="333" height="172" viewBox="0 0 333 172" fill="none" xmlns="http://www.w3.org/2000/svg">
<g clip-path="url(#clip0_211_276)">
<rect y="116" width="10" height="55" fill="#1A315D"/>
<rect x="14" y="116" width="10" height="55" fill="#1A315D"/>
<rect x="30" y="116" width="10" height="55" fill="#1A315D"/>
<rect x="166" y="116" width="10" height="55" fill="#1A315D"/>
<rect x="308" y="116" width="10" height="55" fill="#1A315D"/>
<rect x="91" y="116" width="10" height="55" fill="#1A315D"/>
<rect x="122" y="116" width="10" height="55" fill="#1A315D"/>
<rect x="144" y="116" width="10" height="55" fill="#1A315D"/>
<rect x="257" y="116" width="10" height="55" fill="#1A315D"/>
<rect x="222" y="116" width="10" height="55" fill="#1A315D"/>
<rect x="24" y="116" width="8" height="24" transform="rotate(90 24 116)" fill="#1A315D"/>
<path d="M38 116C50 116 55 116 55 133C55 150 50 150 38 150V116ZM40 142C44 142 44 142 44 132.5C44 123 44 123 40 123V142Z" fill="#1A315D"/>
<path d="M174 116C186 116 191 116 191 133C191 150 186 150 174 150V116ZM176 142C180 142 180 142 180 132.5C180 123 180 123 176 123V142Z" fill="#1A315D"/>
<rect x="274" y="116" width="8" height="24" transform="rotate(90 274 116)" fill="#1A315D"/>
<rect x="161" y="116" width="8" height="24" transform="rotate(90 161 116)" fill="#1A315D"/>
<rect x="212" y="148" width="8" height="17" transform="rotate(90 212 148)" fill="#1A315D"/>
<rect x="211" y="116" width="8" height="13" transform="rotate(90 211 116)" fill="#1A315D"/>
<path d="M211 116L217 171H207L206 156H200L199 171H190L198 116H211ZM201 148H206L203.5 126L201 148Z" fill="#1A315D"/>
<path d="M316 116C328 116 333 116 333 133C333 150 328 150 316 150V116ZM318 142C322 142 322 142 322 132.5C322 123 322 123 318 123V142Z" fill="#1A315D"/>
<path d="M111.556 157.889L116.374 116H124.072L117.746 171H105.365L99.0381 116H106.737L111.556 157.889Z" fill="#1A315D"/>
<path d="M237 171L232 143V139.5L237 116H248L241 137.5V141.5L248 171H237Z" fill="#1A315D"/>
<rect x="60" y="123" width="10" height="41" fill="#1A315D"/>
<rect x="277" y="123" width="10" height="41" fill="#1A315D"/>
<rect x="75" y="123" width="10" height="41" fill="#1A315D"/>
<rect x="292" y="123" width="10" height="41" fill="#1A315D"/>
<path d="M72.5 115C85 115 85 123 85 123H75C75 123 75 122 72.5 122C70 122 70 123 70 123H60C60 123 60 115 72.5 115Z" fill="#1A315D"/>
<path d="M289.5 115C302 115 302 123 302 123H292C292 123 292 122 289.5 122C287 122 287 123 287 123H277C277 123 277 115 289.5 115Z" fill="#1A315D"/>
<path d="M72.5 172C60 172 60 164 60 164L70 164C70 164 70 165.143 72.5 165.143C75 165.143 75 164 75 164L85 164C85 164 85 172 72.5 172Z" fill="#1A315D"/>
<path d="M289.5 172C277 172 277 164 277 164L287 164C287 164 287 165.143 289.5 165.143C292 165.143 292 164 292 164L302 164C302 164 302 172 289.5 172Z" fill="#1A315D"/>
<path d="M203 0C211 0 217 6 217 14V83C217 91 211 97 203 97H130.023C122 97 116 91 116 83V14C116 6 122 0 130 0H203ZM130 4C124.5 4 120 8.5 120 14V83C120 88.5 124.5 93 130 93H203C208.5 93 213 88.5 213 83V14C213 8.5 208.5 4 203 4H130Z" fill="#1A315D"/>
<path d="M131 77H198V81H131.971L131 77Z" fill="#1A315D"/>
<path d="M198 81C198 81 206 79.5 206 66H202C202 77 198 77 198 77V81Z" fill="#1A315D"/>
<path d="M162 52H205V56H162.623L162 52Z" fill="#1A315D"/>
<path d="M136 62H206V66H137.544L136 62Z" fill="#1A315D"/>
<path d="M148 37H162V41H148.203L148 37Z" fill="#1A315D"/>
<path d="M166 16C187.989 16 205.933 33.7328 206.952 56H202.949C201.937 35.9429 185.781 20 166 20C145.565 20 129 37.0132 129 58C129 66.6453 131.813 74.6148 136.548 81H131.691C127.462 74.3928 125 66.4913 125 58C125 34.804 143.356 16 166 16Z" fill="#1A315D"/>
<path d="M142.521 65.6201L138.559 64.8867L147.501 37H151.697L142.521 65.6201ZM164.586 56H160.582L159.415 37H163.419L164.586 56Z" fill="#1A315D"/>
</g>
<defs>
<clipPath id="clip0_211_276">
<rect width="333" height="172" fill="white"/>
</clipPath>
</defs>
</svg>
